<?xml version="1.0" encoding="utf-8"?>
<!-- Generator: Adobe Illustrator 16.0.0, SVG Export Plug-In . SVG Version: 6.00 Build 0)  -->
<!DOCTYPE svg PUBLIC "-//W3C//DTD SVG 1.1//EN" "http://www.w3.org/Graphics/SVG/1.1/DTD/svg11.dtd">
<svg version="1.1" xmlns="http://www.w3.org/2000/svg" xmlns:xlink="http://www.w3.org/1999/xlink" x="0px" y="0px" width="863.5px"
	 height="700.17px" viewBox="0 0 863.5 700.17" enable-background="new 0 0 863.5 700.17" xml:space="preserve">
<g id="Layer_1" sodipodi:docname="uw-sprite-focus.svg" inkscape:version="0.48.4 r9939" xmlns:dc="http://purl.org/dc/elements/1.1/" xmlns:cc="http://creativecommons.org/ns#" xmlns:inkscape="http://www.inkscape.org/namespaces/inkscape" xmlns:rdf="http://www.w3.org/1999/02/22-rdf-syntax-ns#" xmlns:svg="http://www.w3.org/2000/svg" xmlns:sodipodi="http://sodipodi.sourceforge.net/DTD/sodipodi-0.dtd">
	
		<sodipodi:namedview  id="namedview4059" inkscape:current-layer="Layer_1" inkscape:window-y="252" inkscape:window-x="1114" inkscape:window-height="1103" inkscape:window-width="1955" inkscape:pageshadow="2" inkscape:pageopacity="0" inkscape:window-maximized="0" inkscape:cx="276.58475" borderopacity="1" inkscape:zoom="2.67" pagecolor="#ffffff" bordercolor="#666666" showgrid="false" gridtolerance="10" guidetolerance="10" inkscape:cy="390.08499" objecttolerance="10">
		</sodipodi:namedview>
	<polygon id="polygon3545" fill="#4C2F83" points="363.12,2.717 362.42,2.003 358.72,5.625 355.01,2.003 354.31,2.717 358.71,7.026 
		358.72,7.022 358.72,7.026 	"/>
	<polygon id="polygon3547" fill="#4C2F83" points="356.92,54.773 356.2,55.473 359.82,59.175 356.2,62.88 356.92,63.581 
		361.23,59.18 361.22,59.175 361.23,59.173 	"/>
	<polygon id="polygon3549" points="363.12,21.827 362.42,21.112 358.72,24.733 355.01,21.112 354.31,21.827 358.71,26.137 
		358.72,26.132 358.72,26.137 	"/>
	<polygon id="polygon3551" fill="#D1D3D4" points="363.12,38.413 362.42,37.698 358.72,41.319 355.01,37.698 354.31,38.413 
		358.71,42.722 358.72,42.717 358.72,42.722 	"/>
	<path id="path3555" inkscape:connector-curvature="0" fill="#B7A57A" stroke="#000000" d="M88.77,9.121v14.584h10.25L87.58,66.313
		c0,0-14.011-56.4-14.206-57.193H58.558c-0.207,0.773-15.374,57.193-15.374,57.193L32.648,23.705h10.675V9.121H0.5v14.584h9.49
		c0,0,16.365,65.506,16.57,66.297h22.987c0.204-0.779,10.968-41.715,10.968-41.715c6.83,27.308,6.493,25.58,10.429,41.715h22.998
		c0.198-0.779,17.431-66.297,17.431-66.297h9.413V9.121h-32.01H88.77z"/>
	<polygon id="polygon3557" fill="#D2D3D4" points="591.55,5.065 583.17,22.691 584.28,22.691 592.66,5.065 	"/>
	<polygon id="polygon3559" fill="#919396" points="619.76,3.581 607.65,35.955 608.18,35.955 620.29,3.581 	"/>
	<polygon id="polygon3561" fill="#FFFFFF" points="667.91,0.001 631.27,111.062 632.36,111.062 669,0.001 	"/>
	<g id="g3563">
		<path id="path3565" fill="#FFFFFF" d="M543.09,13.398c0-7.387,6.01-13.397,13.392-13.397c7.387,0,13.396,6.011,13.396,13.397
			c0,7.389-6.012,13.399-13.396,13.399C549.1,26.798,543.09,20.788,543.09,13.398z M546.1,13.398
			c0,5.727,4.656,10.385,10.396,10.385c5.726,0,10.384-4.658,10.384-10.385c0-5.726-4.658-10.381-10.384-10.381
			c-5.74,0.001-10.4,4.657-10.4,10.381H546.1z"/>
		
			<rect id="rect3567" x="541.166" y="20.093" transform="matrix(-0.7065 -0.7077 0.7077 -0.7065 907.403 429.9364)" fill="#FFFFFF" width="3.363" height="13.455"/>
	</g>
	<path id="path3569" d="M298.94,21.094c-5.815,0-10.545-4.731-10.545-10.546c0-5.816,4.73-10.546,10.54-10.546
		s10.542,4.73,10.542,10.546C309.489,16.36,304.759,21.094,298.94,21.094L298.94,21.094z M298.94,1.918
		c-4.757,0-8.627,3.872-8.627,8.629c0,4.757,3.87,8.627,8.627,8.627c4.758,0,8.627-3.871,8.627-8.627c0-4.758-3.87-8.629-8.63-8.629
		H298.94z"/>
	<rect id="rect3571" x="295.11" y="9.587" width="7.668" height="1.918"/>
	<rect id="rect3573" x="297.98" y="6.712" width="1.918" height="7.669"/>
	<path id="path3575" fill="#FFFFFF" d="M123.48,580.352c-7.785,0-14.118-6.336-14.118-14.12
		c-0.001-7.783,6.333-14.117,14.118-14.117s14.117,6.334,14.117,14.117c0,7.782-6.34,14.119-14.12,14.119L123.48,580.352z
		 M123.48,554.672c-6.368,0-11.55,5.188-11.55,11.553c0,6.369,5.182,11.552,11.55,11.552c6.371,0,11.551-5.185,11.551-11.552
		c0-6.359-5.18-11.55-11.55-11.55L123.48,554.672z"/>
	<rect id="rect3577" x="118.35" y="564.941" fill="#FFFFFF" width="10.266" height="2.567"/>
	<rect id="rect3579" x="122.2" y="561.092" fill="#FFFFFF" width="2.568" height="10.269"/>
	<path id="path3581" fill="#FFFFFF" d="M298.94,99.768c-5.815,0-10.545-4.731-10.545-10.546c-0.001-5.816,4.73-10.546,10.545-10.546
		s10.544,4.73,10.544,10.546c0.01,5.813-4.72,10.546-10.542,10.546H298.94z M298.94,80.592c-4.757,0-8.627,3.872-8.627,8.629
		c0,4.757,3.87,8.627,8.627,8.627c4.758,0,8.627-3.871,8.627-8.627c0-4.758-3.87-8.629-8.63-8.629H298.94z"/>
	<rect id="rect3583" x="295.11" y="88.262" fill="#FFFFFF" width="7.668" height="1.918"/>
	<rect id="rect3585" x="297.98" y="85.387" fill="#FFFFFF" width="1.918" height="7.669"/>
	<rect id="rect3587" x="409.98" y="116.832" fill="#FED800" width="3.646" height="16.424"/>
	<path id="path3589" fill="#231F20" d="M291.49,43.222c-4.111-4.112-4.111-10.802,0-14.914c4.112-4.112,10.802-4.112,14.917,0
		c4.104,4.112,4.104,10.801-0.002,14.914c-4.12,4.11-10.812,4.112-14.92,0H291.49z M305.04,29.663
		c-3.364-3.364-8.838-3.363-12.202,0c-3.363,3.364-3.364,8.837,0,12.202c3.364,3.365,8.837,3.363,12.2,0
		c3.37-3.364,3.37-8.837,0-12.202H305.04z"/>
	<rect id="rect3591" x="295.1" y="34.786" fill="#231F20" width="7.668" height="1.917"/>
	<path id="path3593" fill="#FED800" d="M291.49,69.396c-4.111-4.112-4.111-10.802,0-14.914c4.112-4.112,10.802-4.112,14.917,0
		c4.104,4.112,4.104,10.801-0.002,14.914c-4.12,4.11-10.812,4.112-14.92,0H291.49z M305.04,55.837
		c-3.364-3.364-8.838-3.363-12.202,0c-3.363,3.364-3.364,8.837,0,12.202c3.364,3.365,8.837,3.363,12.2,0
		c3.37-3.364,3.37-8.837,0-12.202H305.04z"/>
	<rect id="rect3595" x="295.09" y="61" fill="#FED800" width="7.669" height="1.918"/>
	<path id="path3597" fill="#4C2F83" d="M325.76,21.094c-5.812,0-10.545-4.731-10.545-10.546c0-5.816,4.73-10.546,10.54-10.546
		c5.815,0,10.546,4.73,10.546,10.546c0,5.813-4.729,10.546-10.55,10.546H325.76z M325.76,1.918c-4.757,0-8.626,3.872-8.626,8.629
		c0,4.757,3.869,8.627,8.626,8.627c4.77,0,8.629-3.871,8.629-8.627C334.389,5.79,330.519,1.918,325.76,1.918L325.76,1.918z"/>
	<rect id="rect3599" x="321.93" y="9.587" fill="#4C2F83" width="7.668" height="1.918"/>
	<rect id="rect3601" x="324.8" y="6.712" fill="#4C2F83" width="1.918" height="7.669"/>
	<path id="path3603" fill="#4C2F83" d="M318.31,43.222c-4.104-4.112-4.104-10.802,0-14.914c4.113-4.112,10.813-4.112,14.915,0
		c4.111,4.112,4.111,10.801-0.002,14.914c-4.108,4.11-10.8,4.112-14.91,0H318.31z M331.87,29.663c-3.364-3.364-8.838-3.363-12.202,0
		c-3.364,3.364-3.364,8.837,0,12.202c3.364,3.365,8.837,3.363,12.201,0C335.229,38.5,335.229,33.027,331.87,29.663L331.87,29.663z"
		/>
	<rect id="rect3605" x="321.91" y="34.825" fill="#4C2F83" width="7.668" height="1.917"/>
	<g id="g3607">
		
			<rect id="rect3609" x="10.13" y="497.086" transform="matrix(-0.7072 -0.707 0.707 -0.7072 -324.665 863.3514)" fill="#4C2F83" width="12.603" height="3.629"/>
		
			<rect id="rect3611" x="14.69" y="498.992" transform="matrix(-0.7073 -0.7069 0.7069 -0.7073 -329.021 874.36)" fill="#4C2F83" width="3.624" height="12.606"/>
	</g>
	<path id="path3613" fill="#4C2F83" d="M4.423,576.012c-5.897-5.896-5.895-15.489,0-21.39c5.898-5.896,15.491-5.896,21.389,0
		c5.897,5.896,5.897,15.49-0.001,21.39C19.914,581.901,10.318,581.911,4.423,576.012z M23.868,556.563
		c-4.824-4.822-12.673-4.822-17.5,0.004c-4.824,4.821-4.824,12.672,0,17.496c4.828,4.825,12.673,4.823,17.5,0
		C28.691,569.241,28.693,561.392,23.868,556.563z"/>
	<path id="path3615" fill="#4C2F83" d="M5.506,643.592c-6.074-6.076-6.074-15.961,0-22.035c6.078-6.075,15.963-6.075,22.04-0.002
		c6.074,6.078,6.074,15.959-0.004,22.037c-6.073,6.069-15.962,6.069-22.036-0.011V643.592z M25.542,623.563
		c-4.972-4.974-13.059-4.974-18.032,0c-4.971,4.971-4.971,13.061,0,18.026c4.973,4.976,13.058,4.971,18.03,0
		c4.97-4.971,4.974-13.061,0.002-18.03V623.563z"/>
	<g id="g3617">
		
			<rect id="rect3619" x="12.957" y="628.706" transform="matrix(-0.7072 -0.707 0.707 -0.7072 -414.9713 1088.3944)" fill="#4C2F83" width="9.854" height="2.835"/>
		
			<rect id="rect3621" x="16.433" y="630.204" transform="matrix(-0.7075 -0.7067 0.7067 -0.7075 -418.3534 1097.1254)" fill="#4C2F83" width="2.833" height="9.856"/>
	</g>
	<path id="path3623" fill="#FFFFFF" d="M53.856,643.592c-6.076-6.076-6.074-15.961,0-22.035c6.078-6.075,15.962-6.075,22.038-0.002
		c6.076,6.078,6.076,15.959-0.002,22.037c-6.076,6.069-15.962,6.069-22.036-0.011V643.592z M73.891,623.563
		c-4.974-4.974-13.057-4.974-18.034,0c-4.971,4.971-4.971,13.061,0,18.026c4.977,4.976,13.058,4.971,18.034,0
		c4.967-4.971,4.97-13.061,0-18.03V623.563z"/>
	<g id="g3625">
		
			<rect id="rect3627" x="61.227" y="628.672" transform="matrix(-0.707 -0.7072 0.7072 -0.707 -332.6735 1122.3506)" fill="#FFFFFF" width="9.857" height="2.832"/>
		
			<rect id="rect3629" x="64.847" y="630.115" transform="matrix(-0.7074 -0.7068 0.7068 -0.7074 -335.7408 1131.0807)" fill="#FFFFFF" width="2.832" height="9.847"/>
	</g>
	<g id="g3631">
		<polygon id="polygon3633" fill="#5A5B5D" points="263.49,23.277 263.49,19.05 267.61,19.05 267.61,23.277 271.86,23.277 
			271.86,17.875 265.65,12.168 259.38,17.912 259.38,23.277 		"/>
		<polygon id="polygon3635" fill="#5A5B5D" points="272.69,17.224 265.62,10.757 258.54,17.224 257.1,15.642 265.62,7.854 
			274.14,15.642 		"/>
	</g>
	<rect id="rect3637" x="138.31" y="236.521" fill="#CD332D" width="25.522" height="25.523"/>
	<path id="path3639" fill="#FFFFFF" d="M149.3,239.021h-1.162l-0.785,3.015l-0.815-3.015h-1.21c0.242,0.711,0.494,1.427,0.737,2.139
		c0.369,1.07,0.599,1.877,0.703,2.429v3.108h1.15v-3.108l1.38-4.57L149.3,239.021z M152.37,244.841v-2.004
		c0-0.611-0.105-1.058-0.321-1.348c-0.288-0.389-0.691-0.586-1.21-0.586c-0.516,0-0.92,0.197-1.208,0.586
		c-0.222,0.29-0.325,0.737-0.325,1.348v2.004c0,0.608,0.103,1.059,0.325,1.346c0.286,0.39,0.691,0.586,1.208,0.586
		c0.52,0,0.922-0.196,1.21-0.586c0.22-0.29,0.33-0.74,0.33-1.35L152.37,244.841z M151.33,245.042c0,0.529-0.16,0.794-0.494,0.794
		c-0.335,0-0.495-0.265-0.495-0.794v-2.407c0-0.528,0.16-0.791,0.495-0.791s0.494,0.263,0.494,0.791v2.41V245.042z M156.2,246.691
		v-5.72h-1.037v4.372c-0.23,0.325-0.447,0.485-0.655,0.485c-0.139,0-0.22-0.083-0.242-0.242c-0.014-0.034-0.014-0.161-0.014-0.404
		v-4.209h-1.033v4.524c0,0.404,0.036,0.678,0.092,0.848c0.103,0.292,0.334,0.427,0.668,0.427c0.379,0,0.771-0.23,1.184-0.704v0.624
		h1.04L156.2,246.691z"/>
	<path id="path3641" fill="#FFFFFF" d="M159.56,253.642c0,1.323-0.001,2.729-0.298,4.013c-0.208,0.902-0.946,1.57-1.835,1.669
		c-2.105,0.235-4.236,0.235-6.356,0.235c-2.121,0.002-4.251,0-6.356-0.235c-0.89-0.1-1.628-0.767-1.834-1.669
		c-0.296-1.284-0.296-2.69-0.296-4.013c0-1.323,0.002-2.727,0.299-4.013c0.207-0.902,0.945-1.569,1.834-1.668
		c2.104-0.235,4.235-0.235,6.356-0.235c2.121,0,4.251,0,6.356,0.235c0.889,0.099,1.628,0.766,1.834,1.668
		c0.31,1.28,0.31,2.68,0.31,4.01L159.56,253.642z"/>
	<path id="path3643" fill="#CD332D" d="M147.43,250.781v-1.068h-3.577v1.068h1.207v6.528h1.141v-6.528H147.43L147.43,250.781z
		 M149.5,257.312v-0.617c-0.406,0.468-0.793,0.696-1.171,0.696c-0.332,0-0.559-0.134-0.661-0.419
		c-0.056-0.172-0.09-0.442-0.09-0.843v-4.477h1.025v4.17c0,0.239,0,0.365,0.01,0.398c0.025,0.16,0.104,0.238,0.24,0.238
		c0.206,0,0.421-0.16,0.648-0.481v-4.326h1.028v5.661H149.5L149.5,257.312z M153.4,255.691c0,0.511-0.151,0.763-0.446,0.763
		c-0.168,0-0.341-0.081-0.511-0.252v-3.45c0.171-0.168,0.343-0.25,0.511-0.25c0.295,0,0.446,0.265,0.446,0.774v2.42V255.691z
		 M154.42,255.611v-2.254c0-0.536-0.035-0.911-0.104-1.139c-0.137-0.423-0.412-0.638-0.82-0.638c-0.377,0-0.729,0.206-1.06,0.614
		v-2.48h-1.026v7.599h1.026v-0.551c0.343,0.424,0.695,0.627,1.06,0.627c0.409,0,0.683-0.217,0.82-0.635c0.07-0.25,0.1-0.63,0.1-1.15
		L154.42,255.611z M157.27,253.812h-1.025v-0.523c0-0.523,0.17-0.786,0.515-0.786c0.339,0,0.511,0.264,0.511,0.786v0.52
		L157.27,253.812z M158.3,255.501v-0.15h-1.047c0,0.414-0.012,0.638-0.022,0.694c-0.059,0.274-0.206,0.414-0.458,0.414
		c-0.352,0-0.523-0.261-0.523-0.785v-1.003h2.051v-1.173c0-0.605-0.103-1.048-0.317-1.333c-0.288-0.388-0.696-0.581-1.21-0.581
		c-0.523,0-0.933,0.193-1.229,0.581c-0.218,0.286-0.316,0.728-0.316,1.333v1.984c0,0.6,0.112,1.048,0.329,1.329
		c0.297,0.388,0.705,0.582,1.242,0.582c0.537,0,0.957-0.203,1.241-0.614c0.125-0.182,0.204-0.388,0.238-0.615
		c0.01-0.1,0.03-0.33,0.03-0.66L158.3,255.501z"/>
	<rect id="rect3645" x="276.69" y="236.521" fill="#CC3732" width="25.522" height="25.523"/>
	<path id="path3647" fill="#FFFFFF" d="M289.04,240.521c0.164,0.098,0.342,0.243,0.539,0.434c0.194,0.198,0.38,0.443,0.562,0.731
		c0.177,0.272,0.332,0.596,0.469,0.968c0.112,0.371,0.163,0.807,0.163,1.302c-0.014,0.909-0.216,1.638-0.599,2.184
		c-0.188,0.265-0.389,0.509-0.602,0.732c-0.234,0.225-0.484,0.452-0.749,0.682c-0.152,0.159-0.292,0.336-0.417,0.534
		c-0.152,0.205-0.231,0.445-0.231,0.718c0,0.266,0.081,0.484,0.235,0.658c0.13,0.164,0.26,0.31,0.382,0.434l0.862,0.705
		c0.535,0.441,1.005,0.921,1.409,1.453c0.38,0.536,0.578,1.24,0.597,2.107c0,1.231-0.545,2.324-1.633,3.275
		c-1.13,0.984-2.758,1.492-4.886,1.525c-1.781-0.018-3.109-0.396-3.989-1.137c-0.885-0.692-1.329-1.521-1.329-2.488
		c0-0.468,0.143-0.993,0.434-1.571c0.278-0.577,0.785-1.084,1.519-1.521c0.823-0.47,1.688-0.784,2.594-0.941
		c0.898-0.131,1.644-0.206,2.236-0.223c-0.184-0.241-0.346-0.499-0.49-0.774c-0.164-0.267-0.247-0.587-0.247-0.958
		c0-0.225,0.028-0.413,0.092-0.561c0.056-0.16,0.108-0.303,0.155-0.437c-0.289,0.033-0.559,0.049-0.813,0.049
		c-1.354-0.016-2.385-0.441-3.095-1.276c-0.74-0.778-1.115-1.682-1.115-2.716c0-1.248,0.526-2.381,1.579-3.398
		c0.723-0.596,1.474-0.984,2.253-1.167c0.774-0.158,1.497-0.235,2.167-0.235h5.084l-1.57,0.918h-1.57v-0.005l0.02,0.02
		L289.04,240.521z M290.02,255.162c0-0.644-0.21-1.209-0.632-1.685c-0.446-0.454-1.141-1.013-2.088-1.676
		c-0.163-0.019-0.352-0.023-0.571-0.023c-0.126-0.017-0.458,0-0.993,0.049c-0.525,0.074-1.065,0.195-1.615,0.36
		c-0.126,0.049-0.307,0.125-0.546,0.224c-0.234,0.108-0.473,0.261-0.717,0.458c-0.234,0.207-0.433,0.463-0.594,0.769
		c-0.187,0.323-0.279,0.711-0.279,1.166c0,0.894,0.404,1.63,1.213,2.209c0.77,0.578,1.821,0.876,3.158,0.892
		c1.198-0.018,2.113-0.283,2.743-0.794c0.63-0.52,0.93-1.17,0.93-1.96L290.02,255.162z M286.48,247.702
		c0.669-0.024,1.227-0.267,1.677-0.722c0.216-0.323,0.353-0.654,0.415-0.993c0.036-0.344,0.056-0.626,0.056-0.858
		c0-1.002-0.256-2.012-0.772-3.031c-0.238-0.487-0.557-0.886-0.95-1.193c-0.401-0.289-0.862-0.442-1.382-0.459
		c-0.689,0.019-1.262,0.296-1.719,0.834c-0.382,0.562-0.566,1.193-0.552,1.889c0,0.92,0.269,1.875,0.807,2.871
		c0.265,0.463,0.597,0.856,1.009,1.18c0.39,0.32,0.86,0.48,1.39,0.48L286.48,247.702z"/>
	<polygon id="polygon3649" fill="#FFFFFF" points="299.07,242.381 296.4,242.381 296.4,239.711 295.11,239.711 295.11,242.381 
		292.44,242.381 292.44,243.671 295.11,243.671 295.11,246.341 296.4,246.341 296.4,243.671 299.07,243.671 	"/>
	<rect id="rect3651" x="230.62" y="236.582" fill="#00B386" width="25.402" height="25.401"/>
	<path id="path3653" fill="#FFFFFF" d="M245.97,244.781c0-1.182,2.323-1.794,2.323,0.204c-0.007,1.096-0.155,2.108-0.391,3.035
		h2.415c0.184-1.119,0.176-2.223,0.176-3.524c0-3.666-6.765-4.279-6.765,0.367c0,3.265,1.536,4.98,3.145,5.884
		c-1.34,2.629-3.145,4.062-3.145,4.062c-5.052-4.117-4.564-11.085-4.564-11.085h-2.201c0.042,9.412,5.014,12.714,5.625,13.204
		c0.611,0.488,0.733,0.45,1.467,0.408c0.732-0.041,2.402-1.713,4.44-4.891c0.198-0.307,0.374-0.601,0.534-0.886
		c0.852,0.191,1.463,0.196,1.463,0.196v-1.999c-4.29-0.4-4.53-4.07-4.53-4.97L245.97,244.781z"/>
	<rect id="rect3655" x="322.81" y="236.521" fill="#32669A" width="25.521" height="25.523"/>
	<polygon id="polygon3657" fill="#231F20" points="322.81,262.042 322.81,262.071 348.36,262.071 348.36,236.501 322.78,236.501 
		322.78,262.071 322.81,262.071 322.81,262.042 322.84,262.042 322.84,236.551 348.31,236.551 348.31,262.021 322.81,262.021 
		322.81,262.042 322.84,262.042 	"/>
	<path id="path3659" fill="#FFFFFF" d="M329.33,240.881h12.495c1.187,0,2.152,0.971,2.152,2.158v12.495
		c0,1.187-0.971,2.156-2.152,2.156H329.33c-1.188,0-2.158-0.97-2.158-2.156V243.04c0.01-1.19,0.98-2.16,2.17-2.16L329.33,240.881z
		 M339.41,242.751c-0.415,0-0.757,0.343-0.757,0.758v1.81c0,0.416,0.343,0.758,0.757,0.758h1.898c0.411,0,0.758-0.342,0.758-0.758
		v-1.81c0-0.415-0.35-0.758-0.758-0.758H339.41z M342.08,247.992h-1.479c0.146,0.458,0.222,0.941,0.222,1.443
		c0,2.796-2.346,5.062-5.229,5.062c-2.881,0-5.222-2.266-5.222-5.062c0-0.502,0.076-0.985,0.217-1.443h-1.544v7.101
		c0,0.369,0.3,0.667,0.668,0.667h11.708c0.368,0,0.668-0.298,0.668-0.667v-7.101h-0.02H342.08z M335.59,245.981
		c-1.861,0-3.375,1.463-3.375,3.271c0,1.806,1.511,3.271,3.375,3.271c1.866,0,3.377-1.464,3.377-3.271s-1.528-3.27-3.39-3.27
		L335.59,245.981z"/>
	<rect id="rect3661" x="92.188" y="236.521" fill="#CA2128" width="25.523" height="25.523"/>
	<path id="path3663" fill="#FFFFFF" d="M104.95,240.051c-5.098,0-9.232,4.134-9.232,9.23c0,3.778,2.273,7.027,5.526,8.455
		c-0.026-0.646-0.005-1.419,0.161-2.12c0.178-0.75,1.188-5.032,1.188-5.032s-0.295-0.588-0.295-1.46c0-1.366,0.794-2.39,1.782-2.39
		c0.839,0,1.245,0.632,1.245,1.387c0,0.844-0.539,2.106-0.815,3.275c-0.231,0.98,0.492,1.778,1.456,1.778
		c1.75,0,2.928-2.246,2.928-4.908c0-2.022-1.362-3.537-3.841-3.537c-2.799,0-4.544,2.088-4.544,4.421
		c0,0.804,0.238,1.371,0.609,1.811c0.171,0.2,0.195,0.283,0.132,0.514c-0.043,0.17-0.145,0.58-0.188,0.74
		c-0.062,0.235-0.25,0.318-0.462,0.233c-1.291-0.525-1.891-1.938-1.891-3.525c0-2.62,2.211-5.767,6.599-5.767
		c3.523,0,5.845,2.55,5.845,5.29c0,3.622-2.015,6.326-4.982,6.326c-0.997,0-1.934-0.539-2.255-1.15c0,0-0.536,2.126-0.649,2.539
		c-0.196,0.709-0.579,1.424-0.93,1.977c0.831,0.245,1.708,0.378,2.617,0.378c5.098,0,9.23-4.132,9.23-9.23
		c-0.01-5.1-4.14-9.24-9.24-9.24L104.95,240.051z"/>
	<rect id="rect3665" y="236.582" fill="#3B5999" width="25.401" height="25.401"/>
	<path id="path3667" fill="#FFFFFF" d="M22.152,251.792l0.502-3.887h-3.85v-2.482c0-1.125,0.313-1.895,1.927-1.895l2.058-0.001
		v-3.478c-0.355-0.047-1.577-0.153-3-0.153c-2.969,0-5,1.812-5,5.14v2.867h-3.358v3.888h3.358v9.977h4.015v-9.977L22.152,251.792
		L22.152,251.792z"/>
	<rect id="rect3669" x="184.44" y="236.521" fill="#017BB6" width="25.523" height="25.522"/>
	<path id="path3671" fill="#FFFFFF" d="M188.8,246.381h3.6v11.57h-3.6V246.381z M190.61,240.622c1.151,0,2.084,0.935,2.084,2.084
		c0,1.151-0.933,2.085-2.084,2.085c-1.155,0-2.087-0.934-2.087-2.085c0-1.14,0.93-2.08,2.09-2.08"/>
	<path id="path3673" fill="#FFFFFF" d="M194.66,246.381h3.448v1.581h0.049c0.48-0.911,1.654-1.868,3.404-1.868
		c3.64,0,4.314,2.396,4.314,5.51v6.346h-3.594v-5.625c0-1.343-0.027-3.069-1.871-3.069c-1.872,0-2.157,1.462-2.157,2.969v5.724
		h-3.593v-11.56V246.381z"/>
	<rect id="rect3675" x="46.063" y="236.521" fill="#2AA8E0" width="25.523" height="25.523"/>
	<path id="path3677" fill="#FFFFFF" d="M67.332,244.012c-0.626,0.276-1.299,0.465-2.004,0.549c0.721-0.432,1.275-1.115,1.535-1.932
		c-0.673,0.399-1.42,0.692-2.216,0.849c-0.638-0.679-1.545-1.102-2.549-1.102c-1.928,0-3.491,1.564-3.491,3.49
		c0,0.274,0.031,0.54,0.09,0.795c-2.901-0.146-5.473-1.535-7.195-3.648c-0.3,0.518-0.472,1.116-0.472,1.756
		c0,1.21,0.616,2.28,1.552,2.905c-0.572-0.017-1.109-0.176-1.581-0.437v0.044c0,1.691,1.203,3.103,2.8,3.423
		c-0.292,0.081-0.603,0.124-0.92,0.124c-0.225,0-0.444-0.021-0.657-0.062c0.445,1.388,1.733,2.396,3.261,2.425
		c-1.193,0.936-2.699,1.495-4.335,1.495c-0.282,0-0.559-0.018-0.832-0.05c1.544,0.991,3.379,1.57,5.352,1.57
		c6.42,0,9.932-5.321,9.932-9.933c0-0.151-0.004-0.303-0.009-0.452c0.679-0.5,1.27-1.11,1.739-1.81V244.012z"/>
	<g id="g3679">
		<path id="path3681" fill="#FFFFFF" d="M151.38,206.012c0.334,0,0.494-0.265,0.494-0.793v-2.407c0-0.529-0.161-0.793-0.494-0.793
			c-0.335,0-0.496,0.264-0.496,0.793v2.407c0.01,0.53,0.17,0.79,0.5,0.79L151.38,206.012z"/>
		<path id="path3683" fill="#FFFFFF" d="M138.86,222.231h25.522v-25.523H138.86v25.52V222.231z M153.76,201.162h1.034v4.211
			c0,0.243,0,0.37,0.013,0.404c0.023,0.161,0.104,0.242,0.243,0.242c0.207,0,0.425-0.161,0.655-0.485v-4.372h1.038v5.721h-1.038
			v-0.624c-0.414,0.473-0.807,0.704-1.185,0.704c-0.333,0-0.563-0.136-0.667-0.427c-0.057-0.172-0.093-0.447-0.093-0.85v-4.51
			V201.162L153.76,201.162z M149.85,203.021c0-0.611,0.103-1.058,0.324-1.348c0.287-0.39,0.691-0.586,1.208-0.586
			c0.519,0,0.921,0.196,1.21,0.586c0.216,0.29,0.322,0.737,0.322,1.348v2.004c0,0.608-0.106,1.059-0.322,1.346
			c-0.288,0.39-0.691,0.586-1.21,0.586c-0.517,0-0.92-0.196-1.208-0.586c-0.221-0.287-0.324-0.738-0.324-1.346v-2V203.021z
			 M147.08,199.202l0.815,3.015l0.786-3.015h1.161l-1.383,4.568v3.108h-1.149v-3.108c-0.104-0.552-0.335-1.358-0.703-2.43
			c-0.242-0.712-0.495-1.427-0.737-2.139h1.2L147.08,199.202z M143.43,209.812c0.206-0.902,0.944-1.568,1.833-1.667
			c2.105-0.235,4.236-0.236,6.357-0.235c2.12-0.001,4.25,0,6.356,0.235c0.888,0.099,1.627,0.766,1.834,1.667
			c0.295,1.287,0.294,2.688,0.294,4.014c0,1.323-0.001,2.727-0.297,4.012c-0.208,0.902-0.946,1.569-1.835,1.668
			c-2.106,0.235-4.237,0.235-6.356,0.235c-2.122,0-4.251,0-6.357-0.235c-0.889-0.1-1.627-0.766-1.833-1.668
			c-0.297-1.285-0.297-2.689-0.297-4.012c0.02-1.32,0.02-2.73,0.32-4.01L143.43,209.812z"/>
		<path id="path3685" fill="#FFFFFF" d="M148.87,217.571c0.377,0,0.765-0.228,1.172-0.696v0.618h1.028v-5.662h-1.028v4.327
			c-0.227,0.321-0.443,0.48-0.648,0.48c-0.136,0-0.215-0.082-0.24-0.239c-0.01-0.034-0.01-0.159-0.01-0.399v-4.168h-1.025v4.478
			c0,0.4,0.035,0.669,0.09,0.841C148.309,217.441,148.539,217.571,148.87,217.571L148.87,217.571z"/>
		<path id="path3687" fill="#FFFFFF" d="M152.98,216.941c0.343,0.423,0.695,0.627,1.06,0.627c0.41,0,0.684-0.215,0.82-0.636
			c0.068-0.239,0.104-0.617,0.104-1.14v-2.255c0-0.535-0.036-0.91-0.104-1.138c-0.137-0.424-0.412-0.639-0.82-0.639
			c-0.377,0-0.728,0.206-1.06,0.614v-2.481h-1.026v7.599h1.026V216.941L152.98,216.941z M152.98,212.941
			c0.171-0.169,0.343-0.25,0.511-0.25c0.296,0,0.447,0.263,0.447,0.773v2.416c0,0.512-0.151,0.764-0.447,0.764
			c-0.167,0-0.34-0.082-0.511-0.252V212.941L152.98,212.941z"/>
		<polygon id="polygon3689" fill="#FFFFFF" points="145.6,217.492 146.74,217.492 146.74,210.961 147.97,210.961 147.97,209.892 
			144.39,209.892 144.39,210.961 145.6,210.961 		"/>
		<path id="path3691" fill="#FFFFFF" d="M157.34,217.571c0.536,0,0.957-0.203,1.241-0.613c0.124-0.182,0.204-0.388,0.238-0.615
			c0.01-0.103,0.022-0.332,0.022-0.662v-0.15h-1.048c0,0.413-0.012,0.638-0.021,0.694c-0.059,0.274-0.206,0.413-0.458,0.413
			c-0.352,0-0.523-0.262-0.523-0.786v-1.002h2.051v-1.173c0-0.606-0.103-1.048-0.318-1.334c-0.287-0.389-0.695-0.581-1.209-0.581
			c-0.523,0-0.934,0.192-1.229,0.581c-0.218,0.286-0.316,0.728-0.316,1.334v1.983c0,0.601,0.111,1.048,0.328,1.33
			c0.3,0.4,0.71,0.59,1.25,0.59L157.34,217.571z M156.79,213.472c0-0.523,0.171-0.786,0.515-0.786c0.339,0,0.511,0.263,0.511,0.786
			v0.524h-1.025l0.01-0.52L156.79,213.472z"/>
	</g>
	<g id="g3693">
		<path id="path3695" fill="#FFFFFF" d="M289.11,206.171c0.036-0.341,0.056-0.625,0.056-0.858c0-1.002-0.256-2.012-0.768-3.032
			c-0.242-0.488-0.561-0.886-0.953-1.192c-0.401-0.289-0.862-0.443-1.382-0.459c-0.689,0.018-1.262,0.295-1.719,0.833
			c-0.382,0.563-0.567,1.193-0.553,1.889c0,0.92,0.269,1.875,0.807,2.871c0.265,0.464,0.597,0.856,1.009,1.179
			c0.416,0.324,0.885,0.486,1.413,0.486c0.669-0.025,1.227-0.267,1.677-0.722c0.2-0.33,0.34-0.66,0.4-1L289.11,206.171z"/>
		<path id="path3697" fill="#FFFFFF" d="M283.74,217.191c0.771,0.578,1.821,0.876,3.157,0.893c1.198-0.017,2.113-0.282,2.744-0.793
			c0.616-0.505,0.923-1.154,0.923-1.948c0-0.646-0.211-1.208-0.632-1.687c-0.446-0.454-1.142-1.012-2.089-1.675
			c-0.162-0.017-0.349-0.024-0.57-0.024c-0.127-0.016-0.458,0-0.993,0.05c-0.525,0.074-1.065,0.195-1.616,0.36
			c-0.126,0.049-0.307,0.125-0.545,0.224c-0.234,0.107-0.474,0.26-0.718,0.458c-0.234,0.206-0.433,0.462-0.594,0.769
			c-0.188,0.323-0.279,0.711-0.279,1.165c0,0.89,0.4,1.63,1.21,2.21L283.74,217.191z"/>
		<path id="path3699" fill="#FFFFFF" d="M277.23,222.231h25.523v-25.523H277.23v25.52V222.231z M292.98,202.562h2.663v-2.667h1.292
			v2.667h2.667v1.292h-2.667v2.668h-1.292v-2.668h-2.663v-1.29V202.562z M280.8,213.952c0.279-0.577,0.785-1.084,1.519-1.522
			c0.823-0.47,1.688-0.784,2.594-0.941c0.898-0.131,1.644-0.205,2.236-0.223c-0.183-0.241-0.343-0.499-0.487-0.773
			c-0.167-0.266-0.25-0.586-0.25-0.959c0-0.224,0.027-0.413,0.091-0.561c0.057-0.16,0.108-0.304,0.159-0.437
			c-0.289,0.033-0.561,0.049-0.816,0.049c-1.353-0.017-2.386-0.443-3.095-1.277c-0.74-0.778-1.116-1.683-1.116-2.716
			c0-1.249,0.526-2.38,1.58-3.398c0.723-0.595,1.473-0.982,2.253-1.166c0.773-0.157,1.496-0.236,2.17-0.236h5.082l-1.57,0.917h-1.57
			c0.163,0.099,0.342,0.244,0.538,0.433c0.195,0.199,0.38,0.444,0.562,0.732c0.176,0.272,0.332,0.595,0.468,0.967
			c0.112,0.372,0.164,0.806,0.164,1.302c-0.014,0.909-0.216,1.637-0.599,2.183c-0.19,0.266-0.39,0.509-0.602,0.733
			c-0.235,0.223-0.485,0.451-0.75,0.682c-0.151,0.157-0.291,0.334-0.417,0.533c-0.151,0.207-0.23,0.446-0.23,0.719
			c0,0.266,0.081,0.484,0.234,0.658c0.13,0.166,0.26,0.31,0.384,0.434l0.86,0.706c0.536,0.439,1.006,0.921,1.409,1.451
			c0.381,0.539,0.58,1.24,0.597,2.108c0,1.231-0.545,2.323-1.634,3.275c-1.127,0.984-2.758,1.492-4.886,1.525
			c-1.781-0.017-3.109-0.396-3.988-1.138c-0.885-0.694-1.33-1.522-1.33-2.488c0.04-0.44,0.19-0.97,0.47-1.54L280.8,213.952z"/>
	</g>
	<path id="path3701" fill="#FFFFFF" d="M231.17,222.111h25.401v-25.4H231.17V222.111L231.17,222.111z M239.71,203.841
		c0,0-0.489,6.969,4.564,11.085c0,0,1.805-1.432,3.145-4.06c-1.607-0.904-3.145-2.621-3.145-5.884c0-4.646,6.765-4.035,6.765-0.368
		c0,1.301,0.008,2.406-0.175,3.525h-2.416c0.235-0.927,0.383-1.939,0.39-3.035c0-1.997-2.324-1.386-2.324-0.204
		c0,0.897,0.244,4.564,4.524,4.972v1.998c0,0-0.61-0.003-1.463-0.195c-0.161,0.286-0.337,0.581-0.534,0.887
		c-2.039,3.177-3.708,4.848-4.439,4.89c-0.736,0.041-0.856,0.082-1.468-0.408c-0.611-0.49-5.583-3.79-5.624-13.204l2.2-0.01V203.841
		z"/>
	<g id="g3703">
		<path id="path3705" fill="#FFFFFF" d="M348.85,196.711h-25.476v25.473h25.476v-25.47V196.711z M344.52,215.691
			c0,1.187-0.974,2.156-2.155,2.156h-12.495c-1.188,0-2.158-0.97-2.158-2.156v-12.495c0-1.187,0.972-2.158,2.158-2.158h12.495
			c1.187,0,2.155,0.971,2.155,2.158v12.49V215.691z"/>
		<path id="path3707" fill="#FFFFFF" d="M339.96,206.231h1.9c0.417,0,0.757-0.341,0.757-0.757v-1.811
			c0-0.416-0.35-0.758-0.757-0.758h-1.9c-0.415,0-0.757,0.342-0.757,0.758v1.811c0,0.42,0.34,0.76,0.76,0.76L339.96,206.231z"/>
		<path id="path3709" fill="#FFFFFF" d="M341.36,209.591c0,2.794-2.346,5.062-5.229,5.062c-2.882,0-5.222-2.268-5.222-5.062
			c0-0.502,0.076-0.985,0.216-1.444h-1.543v7.101c0,0.368,0.3,0.667,0.668,0.667h11.707c0.368,0,0.667-0.299,0.667-0.667v-7.101
			h-1.479c0.12,0.45,0.2,0.94,0.2,1.44L341.36,209.591z"/>
		<ellipse id="ellipse3711" fill="#FFFFFF" cx="336.13" cy="209.412" rx="3.377" ry="3.271"/>
	</g>
	<rect id="rect3713" x="367.15" y="236.521" fill="#32506D" width="25.52" height="25.523"/>
	<path id="path3715" fill="#FFFFFF" d="M92.731,222.231h25.523v-25.523H92.735v25.52L92.731,222.231z M105.49,200.242
		c5.098,0,9.231,4.133,9.231,9.231c0,5.098-4.133,9.231-9.231,9.231c-0.909,0-1.786-0.134-2.616-0.378
		c0.35-0.556,0.734-1.267,0.93-1.978c0.113-0.411,0.649-2.538,0.649-2.538c0.321,0.611,1.258,1.15,2.255,1.15
		c2.967,0,4.982-2.705,4.982-6.327c0-2.739-2.321-5.289-5.845-5.289c-4.387,0-6.598,3.146-6.598,5.767c0,1.588,0.601,3,1.891,3.526
		c0.211,0.087,0.4,0.003,0.461-0.232c0.044-0.162,0.145-0.569,0.188-0.74c0.063-0.231,0.039-0.312-0.132-0.514
		c-0.372-0.439-0.609-1.007-0.609-1.812c0-2.332,1.745-4.42,4.544-4.42c2.478,0,3.841,1.514,3.841,3.537
		c0,2.663-1.178,4.908-2.927,4.908c-0.964,0-1.688-0.798-1.456-1.777c0.276-1.169,0.814-2.432,0.814-3.276
		c0-0.755-0.405-1.386-1.245-1.386c-0.988,0-1.781,1.022-1.781,2.389c0,0.871,0.295,1.46,0.295,1.46s-1.01,4.281-1.188,5.032
		c-0.165,0.7-0.186,1.473-0.161,2.119c-3.253-1.427-5.525-4.676-5.525-8.455c0.015-5.09,4.155-9.22,9.245-9.22L105.49,200.242z"/>
	<path id="path3717" fill="#FFFFFF" d="M0.542,222.111h25.401v-25.4H0.542V222.111z M11.975,208.021h3.358v-2.867
		c0-3.328,2.031-5.14,5-5.14c1.423,0,2.645,0.106,3,0.153v3.478h-2.058c-1.614,0-1.927,0.768-1.927,1.894v2.482h3.85l-0.502,3.888
		h-3.348v9.976h-4.015v-9.976h-3.358v-3.88V208.021z"/>
	<path id="path3719" fill="#FFFFFF" d="M184.98,222.231h25.523v-25.522H184.98v25.52V222.231z M192.95,218.131h-3.601v-11.569h3.601
		V218.131L192.95,218.131z M195.21,206.562h3.448v1.582h0.049c0.48-0.911,1.653-1.869,3.405-1.869c3.64,0,4.314,2.395,4.314,5.51
		v6.345h-3.595v-5.624c0-1.344-0.026-3.069-1.871-3.069c-1.871,0-2.156,1.461-2.156,2.969v5.724h-3.593l-0.01-11.56L195.21,206.562z
		 M191.15,200.812c1.151,0,2.085,0.935,2.085,2.084c0,1.151-0.934,2.085-2.085,2.085c-1.155,0-2.087-0.935-2.087-2.085
		c-0.01-1.16,0.92-2.09,2.08-2.09L191.15,200.812z"/>
	<path id="path3721" fill="#FFFFFF" d="M46.606,222.231H72.13v-25.524H46.606v25.52V222.231z M52.767,210.941
		c0.213,0.042,0.432,0.063,0.657,0.063c0.318,0,0.627-0.043,0.92-0.123c-1.597-0.32-2.8-1.731-2.8-3.423v-0.044
		c0.471,0.261,1.009,0.419,1.581,0.437c-0.936-0.625-1.552-1.695-1.552-2.905c0-0.64,0.173-1.239,0.473-1.756
		c1.722,2.113,4.293,3.503,7.194,3.648c-0.059-0.255-0.09-0.521-0.09-0.795c0-1.927,1.562-3.491,3.491-3.491
		c1.003,0,1.911,0.424,2.549,1.103c0.795-0.157,1.542-0.448,2.216-0.848c-0.26,0.815-0.813,1.499-1.535,1.931
		c0.706-0.084,1.379-0.271,2.004-0.55c-0.469,0.701-1.061,1.316-1.741,1.807c0.005,0.151,0.009,0.301,0.009,0.453
		c0,4.613-3.512,9.931-9.932,9.931c-1.973,0-3.808-0.578-5.352-1.568c0.273,0.032,0.55,0.05,0.832,0.05
		c1.636,0,3.142-0.561,4.335-1.494c-1.526-0.04-2.815-1.05-3.259-2.44V210.941z"/>
	<path id="path3723" fill="#FFFFFF" d="M500.94,37.81l7.979-7.979l2.28,2.351l-5.735,5.664l5.735,5.699l-2.28,2.28L500.94,37.81
		L500.94,37.81z"/>
	<path id="path3725" fill="#FFFFFF" d="M478.06,45.823l-2.271-2.28l5.729-5.699l-5.729-5.664l2.271-2.351l7.979,7.979L478.06,45.823
		L478.06,45.823z"/>
	<path id="path3727" fill="#4C2F83" d="M456.76,1.336c0.896,0.891,1.336,1.965,1.336,3.224v9.119c0,1.259-0.438,2.333-1.336,3.224
		c-0.891,0.89-1.965,1.335-3.225,1.335h-9.117c-1.26,0-2.334-0.445-3.225-1.335c-0.896-0.891-1.336-1.965-1.336-3.224V4.562
		c0-1.259,0.438-2.333,1.336-3.224c0.88-0.891,1.96-1.336,3.22-1.336h9.117c1.26,0,2.33,0.445,3.22,1.335L456.76,1.336L456.76,1.336
		z M454.85,6.77l-0.961-0.962c-0.143-0.166-0.297-0.166-0.463,0l-5.094,5.058c-0.166,0.167-0.334,0.167-0.5,0l-2.207-2.28
		c-0.072-0.047-0.154-0.071-0.25-0.071s-0.178,0.024-0.25,0.071l-0.996,0.891c-0.072,0.071-0.104,0.154-0.104,0.25
		c0,0.095,0.021,0.178,0.104,0.249l2.244,2.387c0.047,0.024,0.1,0.065,0.16,0.125c0.059,0.059,0.125,0.125,0.193,0.196
		c0.063,0.071,0.104,0.119,0.145,0.143l0.961,0.997c0.166,0.143,0.334,0.143,0.5,0l6.518-6.554c0.182-0.167,0.182-0.334,0.012-0.5
		H454.85z"/>
	<path id="path3729" fill="#BCBEC0" d="M444.16,26.207h9.119c1.258,0,2.332,0.445,3.223,1.335s1.336,1.965,1.336,3.224v9.119
		c0,1.259-0.445,2.333-1.336,3.224s-1.965,1.336-3.223,1.336h-9.119c-1.26,0-2.334-0.445-3.229-1.336
		c-0.891-0.89-1.336-1.965-1.336-3.224v-9.119c0-1.258,0.445-2.333,1.336-3.224C441.831,26.65,442.901,26.207,444.16,26.207
		L444.16,26.207z"/>
	<path id="path3731" fill="#FFFFFF" d="M517.38,4.392c0.095,0.119,0.145,0.255,0.145,0.41c0,0.155-0.05,0.291-0.145,0.41
		l-10.897,10.9c-0.264,0.261-0.521,0.261-0.813,0l-1.604-1.639c-0.164-0.166-0.438-0.439-0.813-0.819l-3.74-3.918
		c-0.095-0.119-0.145-0.261-0.145-0.428c0-0.143,0.05-0.273,0.145-0.392l1.646-1.46c0.107-0.119,0.27-0.178,0.436-0.178
		c0.146,0,0.271,0.059,0.396,0.178l3.698,3.776c0.283,0.261,0.562,0.261,0.818,0l8.479-8.442c0.107-0.119,0.258-0.178,0.398-0.178
		c0.154,0,0.291,0.06,0.41,0.178l1.561,1.602H517.38L517.38,4.392z"/>
	<polygon id="polygon3733" fill="#FFFFFF" points="489.88,70.323 489.89,70.318 476.97,56.713 474.07,59.466 484.37,70.323 
		474.07,81.182 476.97,83.934 489.89,70.329 	"/>
	<polygon id="polygon3735" fill="#FFFFFF" points="498.88,70.323 498.87,70.318 511.78,56.713 514.69,59.466 504.39,70.323 
		514.69,81.182 511.78,83.934 498.87,70.329 	"/>
	<g id="g3737">
		<path id="path3739" fill="#FFFFFF" d="M99.167,321.841c3.193,0,5.791-3.292,5.791-7.337s-2.598-7.337-5.791-7.337
			c-3.194,0-5.793,3.292-5.793,7.337s2.597,7.34,5.791,7.34L99.167,321.841z M99.167,308.711c2.301,0,4.247,2.652,4.247,5.793
			s-1.946,5.792-4.247,5.792c-2.303,0-4.248-2.651-4.248-5.792s1.949-5.79,4.252-5.79L99.167,308.711z"/>
		<path id="path3741" fill="#FFFFFF" d="M88.394,323.142l-1.545,4.643c-0.078,0.229-0.038,0.484,0.106,0.688
			c0.145,0.202,0.378,0.321,0.626,0.321h23.168c0.249,0,0.481-0.119,0.627-0.321c0.145-0.202,0.184-0.46,0.106-0.688l-1.545-4.643
			c-0.081-0.234-0.274-0.43-0.52-0.5l-5.406-1.543c-0.187-0.055-0.384-0.036-0.558,0.061l-4.288,2.146l-4.289-2.146
			c-0.173-0.089-0.371-0.104-0.558-0.061l-5.405,1.543c-0.24,0.07-0.435,0.26-0.516,0.5H88.394z M94.456,322.662l4.365,2.184
			c0.217,0.108,0.474,0.108,0.69,0l4.365-2.184l4.727,1.352l1.076,3.23H88.643l1.077-3.23l4.725-1.35L94.456,322.662z"/>
	</g>
	<g id="g3743">
		<path id="path3745" fill="#231F20" d="M378.21,165.861c2.64,0,4.787-2.722,4.787-6.066c0-3.344-2.147-6.065-4.787-6.065
			c-2.641,0-4.79,2.722-4.79,6.065c0,3.36,2.15,6.08,4.79,6.08V165.861z"/>
		<path id="path3747" fill="#231F20" d="M369.3,167.742l-1.271,3.83c-0.064,0.194-0.03,0.408,0.088,0.574
			c0.12,0.167,0.312,0.266,0.518,0.266h19.154c0.206,0,0.396-0.099,0.519-0.266c0.119-0.167,0.151-0.38,0.087-0.574l-1.271-3.83
			c-0.066-0.202-0.229-0.355-0.435-0.413l-4.471-1.276c-0.152-0.045-0.312-0.03-0.461,0.042l-3.545,1.775l-3.546-1.775
			c-0.146-0.072-0.313-0.085-0.462-0.042l-4.468,1.276c-0.21,0.07-0.37,0.22-0.44,0.42L369.3,167.742z"/>
	</g>
	<g id="g3749">
		<path id="path3751" fill="#FFFFFF" d="M65.922,308.711h-3.09v-0.771c0-0.436-0.345-0.771-0.772-0.771h-2.317
			c-0.426,0-0.771,0.347-0.771,0.771v0.771h-9.268v-0.771c0-0.436-0.347-0.771-0.773-0.771h-2.316c-0.428,0-0.773,0.347-0.773,0.771
			v0.771h-3.088c-0.427,0-0.773,0.346-0.773,0.771v18.525c0,0.436,0.346,0.771,0.773,0.771h23.169c0.426,0,0.772-0.351,0.772-0.771
			v-18.525C66.694,309.062,66.349,308.712,65.922,308.711L65.922,308.711z M60.516,308.711h0.772v1.544h-0.772v-1.54V308.711z
			 M47.386,308.711h0.773v1.544h-0.773v-1.54V308.711z M65.15,327.251H43.525v-16.99h2.316v0.772c0,0.427,0.346,0.771,0.773,0.771
			h2.316c0.426,0,0.773-0.345,0.773-0.771v-0.772h9.268v0.772c0,0.427,0.345,0.771,0.771,0.771h2.317
			c0.427,0,0.772-0.345,0.772-0.771v-0.772h2.318L65.15,327.251z"/>
		<path id="path3753" fill="#FFFFFF" d="M49.704,314.892h-3.089c-0.428,0-0.773,0.354-0.773,0.771v3.089
			c0,0.427,0.346,0.771,0.773,0.771h3.089c0.427,0,0.772-0.354,0.772-0.771v-3.089C50.476,315.243,50.131,314.893,49.704,314.892
			L49.704,314.892z M48.931,317.981h-1.545v-1.545h1.545v1.54V317.981z"/>
		<path id="path3755" fill="#FFFFFF" d="M55.882,314.892h-3.089c-0.426,0-0.771,0.354-0.771,0.771v3.089
			c0,0.427,0.345,0.771,0.771,0.771h3.089c0.425,0,0.772-0.354,0.772-0.771v-3.089C56.654,315.243,56.307,314.893,55.882,314.892
			L55.882,314.892z M55.108,317.981h-1.544v-1.545h1.544v1.54V317.981z"/>
		<path id="path3757" fill="#FFFFFF" d="M62.06,314.892h-3.088c-0.428,0-0.773,0.354-0.773,0.771v3.089
			c0,0.427,0.345,0.771,0.773,0.771h3.088c0.427,0,0.772-0.354,0.772-0.771v-3.089C62.833,315.243,62.487,314.893,62.06,314.892
			L62.06,314.892z M61.288,317.981h-1.545v-1.545h1.545v1.54V317.981z"/>
		<path id="path3759" fill="#FFFFFF" d="M49.704,321.071h-3.089c-0.428,0-0.773,0.346-0.773,0.771v3.089
			c0,0.427,0.346,0.771,0.773,0.771h3.089c0.427,0,0.772-0.354,0.772-0.771v-3.089C50.476,321.413,50.131,321.072,49.704,321.071
			L49.704,321.071z M48.931,324.162h-1.545v-1.546h1.545v1.55V324.162z"/>
		<path id="path3761" fill="#FFFFFF" d="M55.882,321.071h-3.089c-0.426,0-0.771,0.346-0.771,0.771v3.089
			c0,0.427,0.345,0.771,0.771,0.771h3.089c0.425,0,0.772-0.354,0.772-0.771v-3.089C56.654,321.413,56.307,321.072,55.882,321.071
			L55.882,321.071z M55.108,324.162h-1.544v-1.546h1.544v1.55V324.162z"/>
		<path id="path3763" fill="#FFFFFF" d="M62.06,321.071h-3.088c-0.428,0-0.773,0.346-0.773,0.771v3.089
			c0,0.427,0.345,0.771,0.773,0.771h3.088c0.427,0,0.772-0.354,0.772-0.771v-3.089C62.833,321.413,62.487,321.072,62.06,321.071
			L62.06,321.071z M61.288,324.162h-1.545v-1.546h1.545v1.55V324.162z"/>
	</g>
	<path id="path3765" fill="#FFFFFF" d="M227.09,330.341h14.674c0.852,0,1.544-0.692,1.544-1.546v-21.624
		c0-0.851-0.693-1.544-1.544-1.544H227.09c-0.851,0-1.543,0.693-1.543,1.544v2.317h-0.772c-0.426,0-0.772,0.346-0.772,0.771
		c0,0.429,0.346,0.771,0.772,0.771h0.772v1.545h-0.772c-0.426,0-0.772,0.348-0.772,0.771c0,0.423,0.346,0.771,0.772,0.771h0.772
		v1.545h-0.772c-0.426,0-0.772,0.346-0.772,0.771c0,0.435,0.346,0.771,0.772,0.771h0.772v1.545h-0.772
		c-0.426,0-0.772,0.346-0.772,0.771c0,0.438,0.346,0.771,0.772,0.771h0.772v1.545h-0.772c-0.426,0-0.772,0.347-0.772,0.771
		c0,0.436,0.346,0.771,0.772,0.771h0.772v1.546h-0.772c-0.426,0-0.772,0.346-0.772,0.771c0,0.427,0.346,0.771,0.772,0.771h0.772
		v2.316c-0.01,0.87,0.69,1.57,1.54,1.57L227.09,330.341z M241.76,328.792h-3.088v-21.624h3.088v21.62V328.792z M227.09,323.381
		h0.772c0.427,0,0.772-0.346,0.772-0.771c0-0.425-0.346-0.771-0.772-0.771h-0.772v-1.545h0.772c0.427,0,0.772-0.344,0.772-0.771
		c0-0.436-0.346-0.771-0.772-0.771h-0.772v-1.545h0.772c0.427,0,0.772-0.346,0.772-0.771c0-0.435-0.346-0.771-0.772-0.771h-0.772
		v-1.545h0.772c0.427,0,0.772-0.348,0.772-0.771c0-0.428-0.346-0.771-0.772-0.771h-0.772v-1.545h0.772
		c0.427,0,0.772-0.345,0.772-0.771c0-0.426-0.346-0.771-0.772-0.771h-0.772v-2.317h10.042v21.6H227.09v-2.312h0.772
		c0.427,0,0.772-0.354,0.772-0.771s-0.346-0.771-0.772-0.771h-0.772v-1.57V323.381z"/>
	<g id="g3767">
		<path id="path3769" fill="#FFFFFF" d="M155.48,307.171l-11.483,1.53l-11.481-1.53c-0.223-0.03-0.445,0.037-0.611,0.188
			c-0.167,0.146-0.264,0.354-0.264,0.58v18.527c0,0.396,0.286,0.723,0.67,0.771l11.585,1.544c0.034,0.005,0.068,0.007,0.101,0.007
			c0.034,0,0.068-0.002,0.103-0.007l11.583-1.544c0.384-0.052,0.671-0.38,0.671-0.771v-18.53c0-0.229-0.097-0.438-0.263-0.58
			c-0.17-0.15-0.39-0.21-0.61-0.19L155.48,307.171z M133.18,308.821l10.04,1.339v16.976l-10.04-1.338v-16.98V308.821z
			 M154.81,325.802l-10.04,1.338v-16.98l10.04-1.339V325.802L154.81,325.802z"/>
		<path id="path3771" fill="#FFFFFF" d="M135.4,312.571l6.178,0.771c0.032,0.004,0.065,0.007,0.097,0.007
			c0.383,0,0.718-0.287,0.765-0.678c0.053-0.422-0.246-0.809-0.669-0.861l-6.18-0.771c-0.421-0.055-0.809,0.246-0.861,0.67
			c-0.05,0.42,0.25,0.81,0.67,0.86V312.571z"/>
		<path id="path3773" fill="#FFFFFF" d="M141.78,315.671l-6.18-0.771c-0.421-0.062-0.809,0.238-0.861,0.67
			c-0.052,0.425,0.247,0.812,0.671,0.854l6.178,0.772c0.032,0.004,0.065,0.005,0.097,0.005c0.383,0,0.718-0.286,0.765-0.676
			c0.04-0.41-0.26-0.8-0.68-0.85L141.78,315.671z"/>
		<path id="path3775" fill="#FFFFFF" d="M141.78,319.531l-6.18-0.773c-0.421-0.054-0.809,0.247-0.861,0.671
			c-0.052,0.423,0.247,0.812,0.671,0.862l6.178,0.771c0.032,0.014,0.065,0.016,0.097,0.016c0.383,0,0.718-0.285,0.765-0.686
			c0.04-0.42-0.26-0.81-0.68-0.86L141.78,319.531z"/>
		<path id="path3777" fill="#FFFFFF" d="M141.78,323.392l-6.18-0.771c-0.421-0.057-0.809,0.247-0.861,0.67
			c-0.052,0.423,0.247,0.811,0.671,0.861l6.178,0.771c0.032,0.004,0.065,0.006,0.097,0.006c0.383,0,0.718-0.285,0.765-0.677
			c0.04-0.42-0.26-0.81-0.68-0.86H141.78L141.78,323.392z"/>
		<path id="path3779" fill="#FFFFFF" d="M146.31,313.352c0.033,0,0.066-0.004,0.097-0.008l6.178-0.771
			c0.424-0.063,0.724-0.438,0.672-0.861c-0.054-0.424-0.445-0.727-0.863-0.67l-6.178,0.771c-0.424,0.062-0.725,0.439-0.671,0.861
			c0.05,0.39,0.38,0.68,0.76,0.68L146.31,313.352z"/>
		<path id="path3781" fill="#FFFFFF" d="M146.31,317.211c0.033,0,0.066-0.001,0.097-0.005l6.178-0.773
			c0.424-0.052,0.724-0.438,0.672-0.854c-0.054-0.434-0.445-0.729-0.863-0.671l-6.178,0.771c-0.424,0.053-0.725,0.438-0.671,0.863
			c0.05,0.38,0.38,0.67,0.76,0.67L146.31,317.211z"/>
		<path id="path3783" fill="#FFFFFF" d="M146.31,321.071c0.033,0,0.066-0.002,0.097-0.016l6.178-0.771
			c0.424-0.055,0.724-0.439,0.672-0.862c-0.054-0.424-0.445-0.725-0.863-0.671l-6.178,0.773c-0.424,0.053-0.725,0.438-0.671,0.854
			c0.05,0.41,0.38,0.7,0.76,0.7L146.31,321.071z"/>
		<path id="path3785" fill="#FFFFFF" d="M152.4,322.622l-6.178,0.771c-0.424,0.061-0.725,0.438-0.671,0.859
			c0.049,0.395,0.382,0.677,0.765,0.677c0.033,0,0.066-0.002,0.097-0.006l6.178-0.771c0.424-0.062,0.724-0.438,0.672-0.862
			c-0.07-0.42-0.46-0.73-0.87-0.67L152.4,322.622z"/>
	</g>
	<g id="g3787">
		<path id="path3789" fill="#FFFFFF" d="M177.24,321.071h2.531l0.446,1.336l-1.979,1.979c-0.302,0.303-0.302,0.791,0,1.094
			l3.088,3.1c0.303,0.301,0.793,0.301,1.093,0l1.981-1.98l1.334,0.445v2.533c0,0.426,0.347,0.771,0.772,0.771h4.634
			c0.427,0,0.773-0.348,0.773-0.771v-2.533l1.336-0.445l1.978,1.98c0.303,0.301,0.792,0.301,1.094,0l3.089-3.1
			c0.301-0.303,0.301-0.791,0-1.094l-1.98-1.979l0.446-1.336h2.531c0.429,0,0.772-0.354,0.772-0.772v-4.633
			c0-0.427-0.344-0.771-0.772-0.771h-2.531l-0.446-1.339l1.98-1.979c0.301-0.312,0.301-0.791,0-1.093l-3.089-3.1
			c-0.302-0.302-0.791-0.302-1.094,0l-1.978,1.979l-1.336-0.446v-2.531c0-0.428-0.346-0.771-0.773-0.771h-4.634
			c-0.425,0-0.772,0.345-0.772,0.771v2.531l-1.334,0.446l-1.981-1.979c-0.3-0.302-0.79-0.302-1.093,0l-3.088,3.1
			c-0.302,0.303-0.302,0.779,0,1.093l1.979,1.979l-0.446,1.339h-2.531c-0.427,0-0.773,0.354-0.773,0.771v4.633
			c0,0.42,0.34,0.77,0.77,0.77L177.24,321.071z M178.01,316.441h2.317c0.333,0,0.628-0.213,0.733-0.521l0.771-2.317
			c0.093-0.271,0.022-0.583-0.186-0.79l-1.77-1.771l1.997-1.996l1.771,1.771c0.207,0.206,0.513,0.278,0.79,0.188l2.317-0.771
			c0.315-0.104,0.527-0.396,0.527-0.729v-2.316h3.089v2.316c0,0.332,0.213,0.628,0.528,0.729l2.317,0.771
			c0.279,0.092,0.583,0.021,0.791-0.188l1.771-1.771l1.997,1.996l-1.772,1.771c-0.206,0.206-0.278,0.521-0.184,0.79l0.771,2.317
			c0.106,0.312,0.401,0.521,0.733,0.521h2.316v3.098h-2.316c-0.333,0-0.627,0.215-0.733,0.521l-0.771,2.316
			c-0.094,0.271-0.022,0.583,0.184,0.79l1.772,1.771l-1.997,1.997l-1.771-1.771c-0.207-0.207-0.513-0.279-0.791-0.188l-2.317,0.772
			c-0.315,0.104-0.528,0.396-0.528,0.729v2.316h-3.089v-2.316c0-0.332-0.212-0.627-0.527-0.729l-2.317-0.772
			c-0.276-0.092-0.583-0.02-0.79,0.188l-1.771,1.771l-1.997-1.997l1.77-1.771c0.208-0.207,0.279-0.521,0.186-0.79l-0.771-2.316
			c-0.105-0.312-0.4-0.521-0.733-0.521h-2.317v-3.1V316.441z"/>
		<path id="path3791" fill="#FFFFFF" d="M188.82,321.071c1.703,0,3.09-1.396,3.09-3.098c0-1.695-1.387-3.088-3.09-3.088
			c-1.703,0-3.09,1.395-3.09,3.088c0.01,1.71,1.39,3.1,3.09,3.1V321.071z M188.82,316.441c0.851,0,1.544,0.693,1.544,1.555
			c0,0.853-0.693,1.543-1.544,1.543c-0.853,0-1.545-0.69-1.545-1.543c0-0.87,0.69-1.56,1.54-1.56L188.82,316.441z"/>
	</g>
	<g id="g3793">
		<path id="path3795" fill="#FFFFFF" d="M12.598,314.501c0-1.704-1.386-3.089-3.09-3.089c-1.703,0-3.088,1.386-3.088,3.089
			s1.385,3.089,3.088,3.089C11.212,317.59,12.598,316.21,12.598,314.501L12.598,314.501z M7.963,314.501
			c0-0.852,0.693-1.544,1.545-1.544c0.853,0,1.545,0.692,1.545,1.544c0,0.854-0.692,1.545-1.545,1.545
			c-0.852,0.01-1.545-0.69-1.545-1.54V314.501z"/>
		<path id="path3797" fill="#FFFFFF" d="M9.495,330.332c0.222,0,0.433-0.094,0.579-0.261c0.341-0.396,8.344-9.53,8.316-15.562
			c-0.022-4.896-4.006-8.893-8.882-8.893c-4.897,0-8.881,3.988-8.881,8.896c0,6.025,7.949,15.168,8.287,15.562
			c0.147,0.16,0.348,0.25,0.581,0.25V330.332z M9.508,307.171c4.028,0,7.318,3.299,7.336,7.354
			c0.021,4.562-5.514,11.633-7.348,13.847c-1.825-2.216-7.326-9.277-7.326-13.854c0.001-4.06,3.293-7.35,7.338-7.35V307.171z"/>
	</g>
	<path id="path3799" fill="#FFFFFF" d="M110.94,360.552H85.984c-0.459,0-0.833,0.371-0.833,0.83v14.977
		c0,0.459,0.373,0.832,0.833,0.832h24.958c0.459,0,0.832-0.373,0.832-0.832v-14.977c0.01-0.461-0.37-0.83-0.83-0.83H110.94z
		 M108.28,362.222l-9.815,6.094l-9.815-6.094H108.28z M86.815,375.531v-12.489l11.648,7.229l11.648-7.229v12.489H86.815
		L86.815,375.531z"/>
	<g id="g3801">
		<path id="path3803" fill="#FFFFFF" d="M143.79,365.542c-0.46,0-0.833,0.373-0.833,0.832v11.303l-1.906-1.908
			c-0.325-0.321-0.852-0.321-1.177,0c-0.325,0.326-0.325,0.854,0,1.181l3.328,3.325c0.163,0.162,0.375,0.244,0.589,0.244
			s0.425-0.082,0.587-0.244l3.329-3.325c0.325-0.326,0.325-0.854,0-1.181c-0.325-0.321-0.852-0.321-1.177,0l-1.908,1.91v-11.305
			c0-0.4-0.37-0.82-0.83-0.82L143.79,365.542z"/>
		<path id="path3805" fill="#FFFFFF" d="M156.27,357.231h-24.96c-0.459,0-0.833,0.373-0.833,0.832v14.977
			c0,0.459,0.374,0.832,0.833,0.832h9.152c0.46,0,0.833-0.373,0.833-0.832c0-0.461-0.373-0.832-0.833-0.832h-8.321V358.89h23.296
			V372.2h-8.319c-0.459,0-0.833,0.369-0.833,0.831c0,0.46,0.374,0.831,0.833,0.831h9.15c0.459,0,0.833-0.371,0.833-0.831v-14.978
			c0-0.449-0.37-0.82-0.83-0.82L156.27,357.231z"/>
	</g>
	<g id="g3807">
		<path id="path3809" fill="#FFFFFF" d="M13.312,355.562c-3.556,0-6.898,1.388-9.412,3.898c-2.516,2.516-3.9,5.854-3.9,9.412
			c0,3.557,1.384,6.895,3.899,9.412c2.514,2.514,5.856,3.895,9.412,3.895s6.899-1.389,9.412-3.895
			c2.515-2.521,3.901-5.855,3.901-9.412c0-3.563-1.386-6.896-3.901-9.412c-2.512-2.51-5.856-3.9-9.411-3.9V355.562z M21.548,377.11
			c-2.201,2.197-5.126,3.41-8.237,3.41c-3.112,0-6.035-1.213-8.236-3.412c-2.2-2.197-3.412-5.123-3.412-8.232
			c0-3.105,1.212-6.037,3.412-8.23c2.201-2.188,5.124-3.41,8.236-3.41c3.11,0,6.036,1.229,8.237,3.412
			c2.2,2.193,3.411,5.125,3.411,8.229c0,3.101-1.21,6.03-3.411,8.229V377.11z"/>
		<path id="path3811" fill="#FFFFFF" d="M17.413,368.562l-3.329-8.317c-0.126-0.312-0.432-0.521-0.772-0.521
			s-0.646,0.207-0.773,0.521l-3.327,8.317c-0.08,0.201-0.076,0.422,0.002,0.617H9.212l3.327,8.318
			c0.127,0.311,0.433,0.52,0.773,0.52s0.646-0.209,0.772-0.52l3.329-8.318h-0.002c0.077-0.199,0.082-0.42,0.002-0.619V368.562z
			 M13.312,362.792l2.099,5.248h-4.197l2.098-5.25V362.792z M13.312,374.952l-2.099-5.248h4.197l-2.098,5.25V374.952z"/>
	</g>
	<g id="g3813">
		<path id="path3815" fill="#FFFFFF" d="M41.16,378.021h4.991v3.324c0,0.459,0.373,0.834,0.833,0.834h13.312
			c0.459,0,0.831-0.373,0.831-0.834v-3.324h4.992c0.459,0,0.831-0.373,0.831-0.834v-13.31c0-0.459-0.372-0.832-0.831-0.832h-4.992
			v-6.655c0-0.459-0.372-0.832-0.831-0.832H46.983c-0.459,0-0.833,0.373-0.833,0.832v6.655h-4.99c-0.459,0-0.833,0.373-0.833,0.832
			v13.312c0,0.461,0.374,0.83,0.833,0.83V378.021z M59.462,380.521H47.814v-8.316h11.648v8.318V380.521z M47.814,357.222h11.648
			v5.824H47.814v-5.82V357.222z M41.991,364.712h23.295v11.646h-4.16v-4.989c0-0.459-0.372-0.832-0.831-0.832H46.983
			c-0.459,0-0.833,0.373-0.833,0.832v4.989h-4.16l0.001-11.649V364.712z"/>
		<path id="path3817" fill="#FFFFFF" d="M45.073,366.212c-0.307-0.313-0.866-0.313-1.174,0c-0.157,0.153-0.245,0.365-0.245,0.586
			c0,0.217,0.087,0.438,0.245,0.59c0.155,0.154,0.368,0.242,0.587,0.242c0.221,0,0.433-0.088,0.59-0.246
			c0.154-0.146,0.241-0.369,0.241-0.586c0.001-0.221-0.086-0.43-0.244-0.58V366.212z"/>
		<path id="path3819" fill="#FFFFFF" d="M46.983,367.622c0.221,0,0.433-0.088,0.586-0.246c0.159-0.146,0.245-0.369,0.245-0.586
			c0-0.218-0.086-0.434-0.245-0.593c-0.309-0.31-0.866-0.31-1.174,0.007c-0.157,0.152-0.245,0.363-0.245,0.586
			c0,0.217,0.088,0.438,0.245,0.59c0.155,0.16,0.367,0.24,0.588,0.24V367.622z"/>
		<path id="path3821" fill="#FFFFFF" d="M57.798,373.86h-8.319c-0.459,0-0.832,0.373-0.832,0.832s0.373,0.832,0.832,0.832h8.319
			c0.459,0,0.832-0.373,0.832-0.832c0-0.449-0.372-0.83-0.832-0.83V373.86z"/>
		<path id="path3823" fill="#FFFFFF" d="M57.798,377.19h-8.319c-0.459,0-0.832,0.371-0.832,0.834c0,0.457,0.373,0.832,0.832,0.832
			h8.319c0.459,0,0.832-0.373,0.832-0.832s-0.372-0.83-0.832-0.83V377.19z"/>
	</g>
	<polygon id="polygon3825" fill="#4C2F83" points="12.782,560.581 20.05,565.313 12.782,570.041 	"/>
	<path id="path3827" fill="#FFFFFF" d="M52.971,577.382c-5.897-5.896-5.895-15.492,0-21.39c5.899-5.897,15.49-5.897,21.389,0
		c5.897,5.896,5.897,15.479-0.001,21.388c-5.897,5.899-15.493,5.899-21.388,0V577.382z M72.416,557.941
		c-4.824-4.824-12.675-4.822-17.502,0.002c-4.821,4.823-4.821,12.674,0,17.496c4.827,4.825,12.676,4.825,17.502,0
		c4.823-4.83,4.825-12.681,0-17.5V557.941z"/>
	<polygon id="polygon3829" fill="#FFFFFF" points="61.331,561.962 68.599,566.682 61.331,571.411 	"/>
	<polygon id="polygon3831" fill="#FED800" points="369.91,113.841 387.82,124.292 369.91,134.742 	"/>
	<rect id="rect3833" x="418.15" y="116.832" fill="#FED800" width="3.646" height="16.424"/>
	<path id="path3835" d="M453.18,129.501h3.59l5.604,5.595c0.123,0.124,0.287,0.188,0.454,0.188c0.083,0,0.166-0.016,0.246-0.049
		c0.229-0.099,0.396-0.333,0.396-0.594v-19.277c0-0.26-0.149-0.495-0.396-0.594c-0.241-0.1-0.521-0.045-0.7,0.139l-5.604,5.595
		h-3.59c-0.354,0-0.643,0.288-0.643,0.643v7.71c0,0.34,0.28,0.63,0.64,0.63L453.18,129.501z M453.82,121.792h3.213
		c0.171,0,0.334-0.068,0.455-0.188l4.686-4.687v16.175l-4.686-4.686c-0.121-0.121-0.284-0.188-0.455-0.188h-3.213v-6.41V121.792z"/>
	<path id="path3837" d="M464.93,128.352c0.126,0.125,0.29,0.188,0.454,0.188c0.165,0,0.329-0.063,0.454-0.188l2.438-2.438
		l2.438,2.438c0.126,0.125,0.29,0.188,0.454,0.188c0.165,0,0.329-0.063,0.455-0.188c0.25-0.251,0.25-0.658,0-0.909l-2.43-2.44
		l2.438-2.438c0.25-0.251,0.25-0.658,0-0.909c-0.251-0.251-0.658-0.251-0.909,0l-2.438,2.438l-2.438-2.438
		c-0.25-0.251-0.655-0.251-0.906,0c-0.252,0.251-0.252,0.658,0,0.909l2.438,2.44l-2.438,2.437c-0.25,0.25-0.25,0.65,0,0.91H464.93z"
		/>
	<path id="path3839" d="M500.73,129.501h3.604l5.595,5.595c0.123,0.124,0.287,0.188,0.455,0.188c0.082,0,0.166-0.016,0.246-0.049
		c0.24-0.099,0.396-0.333,0.396-0.594v-19.277c0-0.26-0.146-0.495-0.396-0.594c-0.241-0.1-0.521-0.045-0.701,0.139l-5.595,5.595
		h-3.604c-0.354,0-0.645,0.288-0.645,0.643v7.71c-0.01,0.34,0.271,0.63,0.63,0.63L500.73,129.501z M501.37,121.792h3.214
		c0.17,0,0.333-0.068,0.453-0.188l4.687-4.687v16.175l-4.687-4.686c-0.12-0.121-0.283-0.188-0.453-0.188h-3.214v-6.41V121.792z"/>
	<path id="path3841" d="M512.94,127.571c-0.354,0-0.646,0.288-0.646,0.643c0,0.354,0.289,0.642,0.646,0.642
		c2.142,0,3.854-1.729,3.854-3.855s-1.729-3.855-3.854-3.855c-0.354,0-0.646,0.288-0.646,0.642c0,0.355,0.289,0.643,0.646,0.643
		c1.433,0,2.567,1.153,2.567,2.57c0,1.43-1.148,2.58-2.568,2.58L512.94,127.571z"/>
	<path id="path3843" d="M545.39,129.501h3.589l5.604,5.595c0.122,0.124,0.287,0.188,0.454,0.188c0.082,0,0.166-0.016,0.244-0.049
		c0.229-0.099,0.396-0.333,0.396-0.594v-19.277c0-0.26-0.157-0.495-0.396-0.594c-0.239-0.1-0.521-0.045-0.698,0.139l-5.604,5.595
		h-3.589c-0.354,0-0.643,0.288-0.643,0.643v7.71c0.01,0.34,0.29,0.63,0.65,0.63L545.39,129.501z M546.03,121.792h3.213
		c0.171,0,0.334-0.068,0.454-0.188l4.687-4.687v16.175l-4.687-4.686c-0.12-0.121-0.283-0.188-0.454-0.188h-3.213v-6.41V121.792z"/>
	<path id="path3845" d="M557.6,127.571c-0.354,0-0.643,0.288-0.643,0.643c0,0.354,0.288,0.642,0.643,0.642
		c2.126,0,3.855-1.729,3.855-3.855s-1.729-3.855-3.855-3.855c-0.354,0-0.643,0.288-0.643,0.642c0,0.355,0.288,0.643,0.643,0.643
		c1.418,0,2.57,1.153,2.57,2.57s-1.15,2.58-2.57,2.58V127.571z"/>
	<path id="path3847" d="M557.6,132.071c3.897,0,7.068-3.171,7.068-7.068c0-3.898-3.171-7.068-7.068-7.068
		c-0.354,0-0.643,0.288-0.643,0.643s0.288,0.643,0.643,0.643c3.188,0,5.783,2.594,5.783,5.783s-2.595,5.783-5.783,5.783
		c-0.354,0-0.643,0.288-0.643,0.643c0,0.37,0.28,0.66,0.64,0.66L557.6,132.071z"/>
	<g id="g3849">
		<path id="path3851" fill="#FFFFFF" d="M550.09,73.527c0-4.186,3.403-7.591,7.591-7.591c4.188,0,7.604,3.406,7.604,7.591
			c0,4.187-3.406,7.593-7.604,7.593C553.501,81.122,550.091,77.714,550.09,73.527L550.09,73.527z M551.8,73.527
			c0,3.246,2.646,5.885,5.884,5.885c3.244,0,5.896-2.64,5.896-5.885c0-3.245-2.646-5.882-5.896-5.882
			c-3.238,0.001-5.88,2.639-5.88,5.882H551.8z"/>
		
			<rect id="rect3853" x="549.012" y="77.399" transform="matrix(-0.7061 -0.7081 0.7081 -0.7061 880.772 527.9962)" fill="#FFFFFF" width="1.9" height="7.62"/>
	</g>
	<polygon id="polygon3855" fill="#B7A57A" points="632.89,236.421 478.75,236.421 466.75,280.421 632.89,280.421 	"/>
	<polygon id="polygon3857" fill="#B7A57A" points="466.75,398.041 616.58,398.041 620.77,390.231 466.75,390.231 	"/>
	<polygon id="polygon3859" fill="#666666" points="614.25,303.751 478.75,303.751 466.75,347.751 614.25,347.751 	"/>
	<rect id="rect3861" x="166.68" y="496.321" fill="#FFFFFF" width="13.605" height="2.627"/>
	<rect id="rect3863" x="177.66" y="496.321" fill="#FFFFFF" width="2.626" height="13.604"/>
	
		<rect id="rect3865" x="166.648" y="501.923" transform="matrix(-0.707 0.7072 -0.7072 -0.707 651.9684 736.3671)" fill="#FFFFFF" width="13.605" height="2.624"/>
	<g id="g3867">
		
			<rect id="rect3869" x="205.851" y="498.877" transform="matrix(-0.7071 0.7071 -0.7071 -0.7071 712.3707 704.858)" fill="#616264" width="8.723" height="2.161"/>
		
			<rect id="rect3871" x="213.78" y="495.579" transform="matrix(-0.7071 0.7071 -0.7071 -0.7071 720.3002 701.5208)" fill="#616264" width="2.16" height="8.72"/>
		<rect id="rect3873" x="211.5" y="498.462" fill="#616264" width="2.159" height="11.188"/>
	</g>
	<rect id="rect3875" x="117.42" y="496.321" fill="#4C2F83" width="13.605" height="2.627"/>
	<rect id="rect3877" x="128.4" y="496.321" fill="#4C2F83" width="2.626" height="13.604"/>
	
		<rect id="rect3879" x="58.692" y="496.89" transform="matrix(-0.7073 -0.7069 0.7069 -0.7073 -240.3564 896.8893)" fill="#FFFFFF" width="13.604" height="2.626"/>
	
		<rect id="rect3881" x="58.63" y="504.597" transform="matrix(0.707 -0.7072 0.7072 0.707 -338.5993 194.4875)" fill="#FFFFFF" width="13.608" height="2.628"/>
	<path id="path3883" fill="#8C8C8C" d="M706.62,0.664l0.99,0.147l-8.461,30.856l-0.988-0.148L706.62,0.664L706.62,0.664z"/>
	<g id="g3885">
		
			<line id="line3887" fill="none" stroke="#E6E7E8" stroke-width="0.5" stroke-miterlimit="10" x1="422.27" y1="580.352" x2="473.88" y2="452.222"/>
		
			<line id="line3889" fill="none" stroke="#E6E7E8" stroke-width="0.5" stroke-miterlimit="10" x1="425.78" y1="580.352" x2="477.39" y2="452.222"/>
		
			<line id="line3891" fill="none" stroke="#E6E7E8" stroke-width="0.5" stroke-miterlimit="10" x1="429.29" y1="580.342" x2="480.9" y2="452.222"/>
		
			<line id="line3893" fill="none" stroke="#E6E7E8" stroke-width="0.5" stroke-miterlimit="10" x1="432.8" y1="580.352" x2="484.41" y2="452.222"/>
		
			<line id="line3895" fill="none" stroke="#E6E7E8" stroke-width="0.5" stroke-miterlimit="10" x1="436.31" y1="580.352" x2="487.92" y2="452.222"/>
		
			<line id="line3897" fill="none" stroke="#E6E7E8" stroke-width="0.5" stroke-miterlimit="10" x1="439.82" y1="580.352" x2="491.43" y2="452.222"/>
		
			<line id="line3899" fill="none" stroke="#E6E7E8" stroke-width="0.5" stroke-miterlimit="10" x1="443.33" y1="580.352" x2="494.94" y2="452.222"/>
		
			<line id="line3901" fill="none" stroke="#E6E7E8" stroke-width="0.5" stroke-miterlimit="10" x1="446.84" y1="580.352" x2="498.45" y2="452.222"/>
		
			<line id="line3903" fill="none" stroke="#E6E7E8" stroke-width="0.5" stroke-miterlimit="10" x1="450.35" y1="580.352" x2="501.96" y2="452.222"/>
		
			<line id="line3905" fill="none" stroke="#E6E7E8" stroke-width="0.5" stroke-miterlimit="10" x1="453.86" y1="580.352" x2="505.47" y2="452.222"/>
		
			<line id="line3907" fill="none" stroke="#E6E7E8" stroke-width="0.5" stroke-miterlimit="10" x1="457.37" y1="580.352" x2="508.98" y2="452.222"/>
		
			<line id="line3909" fill="none" stroke="#E6E7E8" stroke-width="0.5" stroke-miterlimit="10" x1="460.88" y1="580.352" x2="512.49" y2="452.222"/>
		
			<line id="line3911" fill="none" stroke="#E6E7E8" stroke-width="0.5" stroke-miterlimit="10" x1="464.4" y1="580.352" x2="516" y2="452.222"/>
		
			<line id="line3913" fill="none" stroke="#E6E7E8" stroke-width="0.5" stroke-miterlimit="10" x1="467.9" y1="580.352" x2="519.51" y2="452.222"/>
		
			<line id="line3915" fill="none" stroke="#E6E7E8" stroke-width="0.5" stroke-miterlimit="10" x1="471.41" y1="580.352" x2="523.02" y2="452.222"/>
		
			<line id="line3917" fill="none" stroke="#E6E7E8" stroke-width="0.5" stroke-miterlimit="10" x1="474.92" y1="580.352" x2="526.53" y2="452.222"/>
		
			<line id="line3919" fill="none" stroke="#E6E7E8" stroke-width="0.5" stroke-miterlimit="10" x1="478.43" y1="580.352" x2="530.04" y2="452.222"/>
		
			<line id="line3921" fill="none" stroke="#E6E7E8" stroke-width="0.5" stroke-miterlimit="10" x1="481.94" y1="580.352" x2="533.55" y2="452.222"/>
		
			<line id="line3923" fill="none" stroke="#E6E7E8" stroke-width="0.5" stroke-miterlimit="10" x1="485.45" y1="580.352" x2="537.06" y2="452.222"/>
		
			<line id="line3925" fill="none" stroke="#E6E7E8" stroke-width="0.5" stroke-miterlimit="10" x1="488.96" y1="580.352" x2="540.57" y2="452.222"/>
		
			<line id="line3927" fill="none" stroke="#E6E7E8" stroke-width="0.5" stroke-miterlimit="10" x1="492.48" y1="580.352" x2="544.08" y2="452.222"/>
		
			<line id="line3929" fill="none" stroke="#E6E7E8" stroke-width="0.5" stroke-miterlimit="10" x1="495.98" y1="580.352" x2="547.59" y2="452.222"/>
		
			<line id="line3931" fill="none" stroke="#E6E7E8" stroke-width="0.5" stroke-miterlimit="10" x1="499.5" y1="580.352" x2="551.1" y2="452.222"/>
		
			<line id="line3933" fill="none" stroke="#E6E7E8" stroke-width="0.5" stroke-miterlimit="10" x1="503" y1="580.352" x2="554.61" y2="452.222"/>
		
			<line id="line3935" fill="none" stroke="#E6E7E8" stroke-width="0.5" stroke-miterlimit="10" x1="506.52" y1="580.352" x2="558.12" y2="452.222"/>
		
			<line id="line3937" fill="none" stroke="#E6E7E8" stroke-width="0.5" stroke-miterlimit="10" x1="510.02" y1="580.352" x2="561.64" y2="452.222"/>
		
			<line id="line3939" fill="none" stroke="#E6E7E8" stroke-width="0.5" stroke-miterlimit="10" x1="513.54" y1="580.352" x2="565.14" y2="452.222"/>
		
			<line id="line3941" fill="none" stroke="#E6E7E8" stroke-width="0.5" stroke-miterlimit="10" x1="517.05" y1="580.352" x2="568.66" y2="452.222"/>
		
			<line id="line3943" fill="none" stroke="#E6E7E8" stroke-width="0.5" stroke-miterlimit="10" x1="520.56" y1="580.352" x2="572.16" y2="452.222"/>
		
			<line id="line3945" fill="none" stroke="#E6E7E8" stroke-width="0.5" stroke-miterlimit="10" x1="524.07" y1="580.352" x2="575.68" y2="452.222"/>
		
			<line id="line3947" fill="none" stroke="#E6E7E8" stroke-width="0.5" stroke-miterlimit="10" x1="527.58" y1="580.352" x2="579.19" y2="452.222"/>
		
			<line id="line3949" fill="none" stroke="#E6E7E8" stroke-width="0.5" stroke-miterlimit="10" x1="531.09" y1="580.352" x2="582.7" y2="452.222"/>
		
			<line id="line3951" fill="none" stroke="#E6E7E8" stroke-width="0.5" stroke-miterlimit="10" x1="534.6" y1="580.352" x2="586.21" y2="452.222"/>
		
			<line id="line3953" fill="none" stroke="#E6E7E8" stroke-width="0.5" stroke-miterlimit="10" x1="538.11" y1="580.352" x2="589.72" y2="452.222"/>
		
			<line id="line3955" fill="none" stroke="#E6E7E8" stroke-width="0.5" stroke-miterlimit="10" x1="541.62" y1="580.352" x2="593.23" y2="452.222"/>
		
			<line id="line3957" fill="none" stroke="#E6E7E8" stroke-width="0.5" stroke-miterlimit="10" x1="545.13" y1="580.352" x2="596.74" y2="452.222"/>
		
			<line id="line3959" fill="none" stroke="#E6E7E8" stroke-width="0.5" stroke-miterlimit="10" x1="548.64" y1="580.352" x2="600.25" y2="452.222"/>
		
			<line id="line3961" fill="none" stroke="#E6E7E8" stroke-width="0.5" stroke-miterlimit="10" x1="552.15" y1="580.352" x2="603.76" y2="452.222"/>
		
			<line id="line3963" fill="none" stroke="#E6E7E8" stroke-width="0.5" stroke-miterlimit="10" x1="555.66" y1="580.352" x2="607.27" y2="452.222"/>
		
			<line id="line3965" fill="none" stroke="#E6E7E8" stroke-width="0.5" stroke-miterlimit="10" x1="559.17" y1="580.352" x2="610.78" y2="452.222"/>
		
			<line id="line3967" fill="none" stroke="#E6E7E8" stroke-width="0.5" stroke-miterlimit="10" x1="562.68" y1="580.352" x2="614.29" y2="452.222"/>
		
			<line id="line3969" fill="none" stroke="#E6E7E8" stroke-width="0.5" stroke-miterlimit="10" x1="566.19" y1="580.352" x2="617.8" y2="452.222"/>
		
			<line id="line3971" fill="none" stroke="#E6E7E8" stroke-width="0.5" stroke-miterlimit="10" x1="569.7" y1="580.352" x2="621.31" y2="452.222"/>
		
			<line id="line3973" fill="none" stroke="#E6E7E8" stroke-width="0.5" stroke-miterlimit="10" x1="573.21" y1="580.352" x2="624.82" y2="452.222"/>
		
			<line id="line3975" fill="none" stroke="#E6E7E8" stroke-width="0.5" stroke-miterlimit="10" x1="576.72" y1="580.352" x2="628.33" y2="452.222"/>
		
			<line id="line3977" fill="none" stroke="#E6E7E8" stroke-width="0.5" stroke-miterlimit="10" x1="580.23" y1="580.352" x2="631.84" y2="452.222"/>
		
			<line id="line3979" fill="none" stroke="#E6E7E8" stroke-width="0.5" stroke-miterlimit="10" x1="583.74" y1="580.352" x2="635.35" y2="452.222"/>
		
			<line id="line3981" fill="none" stroke="#E6E7E8" stroke-width="0.5" stroke-miterlimit="10" x1="587.25" y1="580.352" x2="638.86" y2="452.222"/>
		
			<line id="line3983" fill="none" stroke="#E6E7E8" stroke-width="0.5" stroke-miterlimit="10" x1="590.76" y1="580.352" x2="642.37" y2="452.222"/>
		
			<line id="line3985" fill="none" stroke="#E6E7E8" stroke-width="0.5" stroke-miterlimit="10" x1="594.27" y1="580.352" x2="645.88" y2="452.222"/>
		
			<line id="line3987" fill="none" stroke="#E6E7E8" stroke-width="0.5" stroke-miterlimit="10" x1="597.78" y1="580.352" x2="649.39" y2="452.222"/>
		
			<line id="line3989" fill="none" stroke="#E6E7E8" stroke-width="0.5" stroke-miterlimit="10" x1="601.29" y1="580.352" x2="652.9" y2="452.222"/>
		
			<line id="line3991" fill="none" stroke="#E6E7E8" stroke-width="0.5" stroke-miterlimit="10" x1="604.8" y1="580.352" x2="656.41" y2="452.222"/>
		
			<line id="line3993" fill="none" stroke="#E6E7E8" stroke-width="0.5" stroke-miterlimit="10" x1="608.31" y1="580.352" x2="659.92" y2="452.222"/>
		
			<line id="line3995" fill="none" stroke="#E6E7E8" stroke-width="0.5" stroke-miterlimit="10" x1="611.82" y1="580.352" x2="663.43" y2="452.222"/>
		
			<line id="line3997" fill="none" stroke="#E6E7E8" stroke-width="0.5" stroke-miterlimit="10" x1="615.33" y1="580.352" x2="666.94" y2="452.222"/>
		
			<line id="line3999" fill="none" stroke="#E6E7E8" stroke-width="0.5" stroke-miterlimit="10" x1="618.84" y1="580.352" x2="670.45" y2="452.222"/>
		
			<line id="line4001" fill="none" stroke="#E6E7E8" stroke-width="0.5" stroke-miterlimit="10" x1="622.35" y1="580.352" x2="673.96" y2="452.222"/>
		
			<line id="line4003" fill="none" stroke="#E6E7E8" stroke-width="0.5" stroke-miterlimit="10" x1="625.86" y1="580.352" x2="677.47" y2="452.222"/>
		
			<line id="line4005" fill="none" stroke="#E6E7E8" stroke-width="0.5" stroke-miterlimit="10" x1="629.37" y1="580.352" x2="680.98" y2="452.222"/>
		
			<line id="line4007" fill="none" stroke="#E6E7E8" stroke-width="0.5" stroke-miterlimit="10" x1="632.88" y1="580.352" x2="684.49" y2="452.222"/>
		
			<line id="line4009" fill="none" stroke="#E6E7E8" stroke-width="0.5" stroke-miterlimit="10" x1="636.39" y1="580.352" x2="688" y2="452.222"/>
		
			<line id="line4011" fill="none" stroke="#E6E7E8" stroke-width="0.5" stroke-miterlimit="10" x1="639.9" y1="580.352" x2="691.51" y2="452.222"/>
		
			<line id="line4013" fill="none" stroke="#E6E7E8" stroke-width="0.5" stroke-miterlimit="10" x1="643.41" y1="580.352" x2="695.02" y2="452.222"/>
		
			<line id="line4015" fill="none" stroke="#E6E7E8" stroke-width="0.5" stroke-miterlimit="10" x1="646.92" y1="580.352" x2="698.53" y2="452.222"/>
		
			<line id="line4017" fill="none" stroke="#E6E7E8" stroke-width="0.5" stroke-miterlimit="10" x1="650.43" y1="580.352" x2="702.04" y2="452.222"/>
		
			<line id="line4019" fill="none" stroke="#E6E7E8" stroke-width="0.5" stroke-miterlimit="10" x1="653.94" y1="580.352" x2="705.55" y2="452.222"/>
		
			<line id="line4021" fill="none" stroke="#E6E7E8" stroke-width="0.5" stroke-miterlimit="10" x1="657.45" y1="580.352" x2="709.06" y2="452.222"/>
		
			<line id="line4023" fill="none" stroke="#E6E7E8" stroke-width="0.5" stroke-miterlimit="10" x1="660.96" y1="580.352" x2="712.57" y2="452.222"/>
		
			<line id="line4025" fill="none" stroke="#E6E7E8" stroke-width="0.5" stroke-miterlimit="10" x1="664.47" y1="580.352" x2="716.08" y2="452.222"/>
		
			<line id="line4027" fill="none" stroke="#E6E7E8" stroke-width="0.5" stroke-miterlimit="10" x1="667.98" y1="580.352" x2="719.59" y2="452.222"/>
		
			<line id="line4029" fill="none" stroke="#E6E7E8" stroke-width="0.5" stroke-miterlimit="10" x1="671.49" y1="580.352" x2="723.1" y2="452.222"/>
	</g>
	<polygon id="polygon4031" fill="#FFFFFF" points="482.08,8.719 482.08,8.719 487.96,2.518 486.3,0.944 480.5,7.057 474.7,0.944 
		473.04,2.518 478.92,8.719 478.92,8.719 478.92,8.721 473.04,14.924 474.7,16.499 480.5,10.387 486.3,16.499 487.96,14.924 
		482.07,8.721 	"/>
	<polygon id="polygon4033" fill="#85754D" points="632.89,236.421 590.98,236.421 576.91,280.421 632.89,280.421 	"/>
	<polygon id="polygon4035" fill="#746041" points="593.3,236.421 590.98,236.421 576.91,280.421 579.28,280.421 	"/>
	
		<rect id="rect4037" x="436.35" y="76.828" transform="matrix(-0.7071 0.7071 -0.7071 -0.7071 821.858 -185.2753)" fill="#666666" width="25.902" height="1.493"/>
	
		<rect id="rect4039" x="436.336" y="76.81" transform="matrix(-0.7071 -0.7071 0.7071 -0.7071 712.1442 450.088)" fill="#666666" width="25.902" height="1.494"/>
	<path id="path4041" fill="#FFFFFF" d="M384.87,256.361c-0.675,0.318-1.287,0.544-1.835,0.673c-0.548,0.129-1.146,0.193-1.777,0.193
		c-0.723,0-1.146-0.091-1.704-0.273c-0.555-0.184-1.023-0.448-1.421-0.785c-0.393-0.341-0.664-0.703-0.812-1.084
		c-0.151-0.382-0.229-0.937-0.229-1.665v-5.572h-2.146v-2.25c0.621-0.202,1.341-0.493,1.776-0.872
		c0.445-0.379,0.805-0.834,1.067-1.365c0.269-0.53,0.453-1.205,0.554-2.025h2.249v3.676h3.655v2.836h-3.655v4.075
		c0,0.922-0.012,1.453,0.085,1.713c0.102,0.261,0.338,0.531,0.604,0.687c0.35,0.21,0.749,0.316,1.198,0.316
		c0.802,0,1.598-0.262,2.39-0.785v2.48V256.361z"/>
	<path id="path4043" fill="#FFFFFF" d="M367.15,196.711v25.523h25.52v-25.523H367.15z M384.87,216.492
		c-0.675,0.318-1.287,0.544-1.835,0.673s-1.146,0.193-1.777,0.193c-0.723,0-1.146-0.091-1.704-0.273
		c-0.555-0.184-1.023-0.448-1.421-0.785c-0.393-0.341-0.664-0.703-0.812-1.084c-0.151-0.382-0.229-0.937-0.229-1.665v-5.572h-2.146
		v-2.25c0.621-0.202,1.341-0.493,1.776-0.872c0.445-0.379,0.805-0.834,1.067-1.365c0.269-0.53,0.453-1.205,0.554-2.025h2.249v3.676
		h3.655v2.836h-3.655v4.075c0,0.922-0.012,1.453,0.085,1.713c0.102,0.261,0.338,0.531,0.604,0.687
		c0.35,0.21,0.749,0.316,1.198,0.316c0.802,0,1.598-0.262,2.39-0.785v2.47V216.492z"/>
	<path id="path4045" fill="#FFFFFF" d="M277.83,314.352l-0.089-0.93c-1.089-0.034-1.993-0.197-2.744-0.437
		c-0.344,0.292-1.078,0.867-2.104,1.443c1.25,0.19,2.84,0.19,4.93-0.07L277.83,314.352z M271.65,310.312
		c-1.22,0.641-2.666,0.845-3.774,0.894c0.306,0.408,0.616,0.808,0.963,1.18c1.506-0.331,2.71-0.889,3.353-1.23
		c-0.25-0.31-0.43-0.6-0.54-0.84L271.65,310.312z M272.07,309.151c0.149,0.059,0.26,0.188,0.295,0.344
		c0.028,0.114,0.734,2.758,5.28,2.95l-0.002-0.022c0,0-1.595-0.705-1.41-2.857c0.186-2.152-1.41-3.488-3.228-2.337
		c-1.817,1.151-3.784,1.559-4.971,1.373c-1.188-0.185-2.135,0.169-1.262,1.188c0.13,0.151,0.254,0.304,0.375,0.458
		c1.142,0.011,3.112-0.122,4.473-1.045c0.14-0.09,0.31-0.11,0.46-0.05L272.07,309.151z M272.9,311.872
		c-0.534,0.303-1.681,0.89-3.198,1.3c0.476,0.36,1.034,0.669,1.723,0.904c1.123-0.512,2.002-1.109,2.539-1.516
		c-0.42-0.2-0.77-0.44-1.06-0.68L272.9,311.872z M284.9,312.562c0.537,0.407,1.417,1.004,2.538,1.516
		c0.689-0.235,1.248-0.544,1.723-0.904c-1.516-0.411-2.664-0.997-3.198-1.3c-0.29,0.23-0.64,0.47-1.06,0.68L284.9,312.562z
		 M286.68,311.151c0.642,0.341,1.846,0.899,3.352,1.229c0.348-0.372,0.658-0.772,0.963-1.18c-1.107-0.049-2.554-0.253-3.773-0.894
		c-0.12,0.24-0.3,0.53-0.54,0.84L286.68,311.151z M290.83,308.602c-1.188,0.186-3.153-0.223-4.972-1.373
		c-1.818-1.15-3.414,0.186-3.229,2.337c0.186,2.152-1.41,2.857-1.41,2.857l-0.002,0.022c4.546-0.192,5.252-2.835,5.28-2.95
		c0.036-0.156,0.146-0.285,0.295-0.344c0.148-0.058,0.318-0.041,0.45,0.05c1.362,0.923,3.333,1.056,4.474,1.045
		c0.12-0.154,0.245-0.307,0.374-0.458c0.87-1.04-0.07-1.39-1.26-1.2V308.602L290.83,308.602z M281.12,313.421l-0.089,0.93
		c2.083,0.264,3.678,0.264,4.938,0.077c-1.027-0.576-1.76-1.15-2.104-1.443c-0.75,0.23-1.66,0.39-2.75,0.43L281.12,313.421z
		 M282.77,316.222c-0.748-0.276-1.517-0.059-1.717,0.485c-0.2,0.544,0.243,1.208,0.991,1.483c0.275,0.102,0.552,0.136,0.804,0.112
		c-0.085,0.751-0.586,1.837-2.572,2.538c-0.147,0.052-0.292,0.105-0.436,0.16l0.238-10.335c0.807-0.286,1.386-1.052,1.386-1.957
		c0-1.148-0.93-2.078-2.078-2.078c-1.147,0-2.078,0.93-2.078,2.078c0,0.89,0.562,1.647,1.349,1.943l0.24,10.394
		c-0.18-0.07-0.363-0.139-0.549-0.204c-1.986-0.7-2.486-1.787-2.573-2.538c0.252,0.024,0.529-0.01,0.804-0.112
		c0.748-0.276,1.191-0.939,0.991-1.483c-0.201-0.543-0.969-0.76-1.716-0.485c-0.507,0.188-0.875,0.553-0.995,0.939
		c-0.913,1.432,0.139,3.654,4.066,5.089l0.084,3.656c-1.363-0.67-1.849-1.297-1.849-1.838c0-0.594,1.039-1.187,1.039-1.187
		l-1.039-0.482c0,0-0.668,0.339-0.668,1.558c0,1.154,1.165,1.995,2.532,2.607l0.08,3.468c-0.33-0.22-1.166-0.854-1.166-1.66
		c0-0.385,0.251-0.769,0.605-1.09l-0.55-0.29c-0.42,0.455-0.477,0.887-0.477,1.224c0,0.54,0.213,1.532,1.612,1.861l0.049,2.12
		c0.003,0.119,0.098,0.211,0.213,0.211c0.114,0,0.209-0.092,0.213-0.211l0.048-2.11c1.433-0.322,1.649-1.326,1.649-1.87
		c0-0.469-0.109-1.123-1.157-1.763c3.312-1.774,2.606-3.378,0.521-4.594c3.145-1.423,3.955-3.391,3.124-4.7
		c-0.1-0.39-0.47-0.76-0.98-0.95L282.77,316.222z M280.83,328.372c0,0.839-0.906,1.493-1.204,1.685l0.073-3.162
		c0.61,0.36,1.13,0.92,1.13,1.47L280.83,328.372z M279.72,325.961l0.079-3.401C283.179,323.88,280.729,325.44,279.72,325.961
		L279.72,325.961z"/>
	
		<circle id="circle4047" fill="none" stroke="#C7C7C7" stroke-width="3.75" stroke-miterlimit="10" cx="391.031" cy="35.325" r="7.946"/>
	
		<circle id="circle4049" fill="none" stroke="#4B2E83" stroke-width="3.75" stroke-miterlimit="10" cx="391.031" cy="10.558" r="7.946"/>
	
		<circle id="circle4051" fill="none" stroke="#C7C7C7" stroke-width="3.75" stroke-miterlimit="10" cx="415.256" cy="35.325" r="7.946"/>
	
		<circle id="circle4053" fill="none" stroke="#4B2E83" stroke-width="3.75" stroke-miterlimit="10" cx="415.256" cy="10.558" r="7.946"/>
	<circle id="circle4055" fill="#4B2E83" cx="415.256" cy="10.558" r="2.792"/>
	<circle id="circle4057" fill="#C7C7C7" cx="415.256" cy="35.325" r="2.792"/>
</g>
<g id="Layer_2">
	<path fill="#B7A57A" d="M23.706,449.314 M28.705,433.191"/>
	<g>
		<path fill="#B7A57A" d="M244.807,447.058V437.8l6.424,10.324h0.631v-11.289l1.07-1.064h-3.228l1.069,1.064v7.855l-5.569-8.918
			h-2.558l1.049,1.063v10.223l-1.049,1.07h3.229L244.807,447.058z M235.262,447.456c-2.474,0-3.33-2.955-3.33-5.508
			c0-2.559,0.858-5.514,3.33-5.514c2.491,0,3.352,2.955,3.352,5.514C238.611,444.499,237.753,447.456,235.262,447.456
			 M230.318,441.948c0,3.141,1.781,6.449,4.941,6.449c3.182,0,4.965-3.309,4.965-6.449s-1.775-6.449-4.965-6.449
			C232.1,435.499,230.318,438.804,230.318,441.948 M224.734,447.142v-10.453h2.345l1.317,1.322v-2.24h-8.69v2.236l1.34-1.32h2.325
			v10.453l-0.964,0.98h3.309L224.734,447.142z M215.583,442.511v3.979c-0.292,0.297-0.878,0.879-2.028,0.879
			c-2.746,0-4.125-2.766-4.125-5.422c0-2.682,1.738-5.426,4.125-5.426c0.627,0,1.088,0.146,1.508,0.59l1.36,1.336v-2.135
			c-0.731-0.375-1.466-0.713-2.868-0.713c-3.371,0-5.738,3.018-5.738,6.348c0,3.266,2.367,6.344,5.738,6.344
			c1.906,0,2.723-0.463,3.393-0.91v-4.871l0.962-0.982h-3.31L215.583,442.511z M197.266,447.058V437.8l6.5,10.332l0.561-0.008
			v-11.289l1.066-1.064h-3.226l1.069,1.064v7.855l-5.568-8.918h-2.557l1.05,1.063v10.223l-1.05,1.07h3.229L197.266,447.058z
			 M188.407,435.771l0.983,0.982v10.387l-0.983,0.98h3.325l-0.981-0.98v-10.387l0.981-0.982H188.407L188.407,435.771z
			 M177.434,441.923h5.193v5.219l-0.984,0.98h3.33l-0.984-0.98v-10.387l0.984-0.982h-3.33l0.984,0.982v4.248h-5.193v-4.248
			l0.985-0.982h-3.31l0.963,0.982v10.387l-0.963,0.98h3.31l-0.985-0.98V441.923z M171.863,444.69c0-1.215-0.566-1.971-1.151-2.369
			l-2.515-1.822c-0.9-0.648-1.361-1.484-1.361-2.115c0-1.295,1.111-1.76,1.781-1.76c0.354,0,0.605,0.146,0.795,0.146l1.087,1.176
			l1.151-1.719l-2.449-0.463c-0.167-0.041-0.271-0.063-0.583-0.063c-2.159,0-3.144,1.844-3.144,3.037c0,0.939,0.479,2.01,1.59,2.822
			l2.533,1.822c0.69,0.484,0.879,1.195,0.879,1.805c0,1.049-0.647,2.188-2.051,2.188c-0.336,0-0.631-0.064-0.861-0.178l-1.172-1.377
			l-1.068,1.924l2.365,0.465c0,0,0.398,0.08,0.734,0.08C169.915,448.292,171.863,447.036,171.863,444.69 M158.04,438.513
			l1.696,5.109h-3.457L158.04,438.513z M155.064,447.161l0.897-2.617h4.086l0.856,2.617l-0.963,0.965h3.5l-0.984-1.006
			l-3.852-11.348h-0.629l-3.918,11.348l-1.004,1.006h2.973L155.064,447.161z M141.926,448.124l2.827-8.939l2.742,8.939h0.629
			l3.58-11.367l1.004-0.982h-2.972l0.965,0.961l-2.617,8.543l-2.536-8.543l0.964-0.961h-3.498l0.985,0.982l0.251,0.814l-2.369,7.707
			l-2.531-8.545l0.963-0.963h-3.498l1.006,0.982l3.477,11.369h0.629V448.124z M123.618,440.718l-0.47,0.451l0.052,0.174h1.443
			c-0.226,1.568-0.433,2.924-0.766,5.119c-0.467,3.25-0.868,4.4-1.199,4.68c-0.105,0.104-0.278,0.154-0.434,0.154
			c-0.209,0-0.54-0.154-0.768-0.26c-0.207-0.105-0.381,0.016-0.486,0.121c-0.138,0.158-0.294,0.4-0.294,0.592
			c0,0.348,0.451,0.523,0.749,0.523c0.33,0,1.166-0.275,1.915-1.199c0.59-0.729,1.388-2.422,2.067-6.352
			c0.123-0.73,0.263-1.461,0.559-3.375l1.773-0.176l0.379-0.449h-2.05c0.521-3.223,0.956-4.195,1.705-4.195
			c0.524,0,0.955,0.207,1.339,0.574c0.124,0.123,0.313,0.123,0.486-0.018c0.138-0.123,0.348-0.4,0.348-0.643
			c0.019-0.352-0.452-0.73-1.047-0.73c-1.009,0-2.067,0.592-2.798,1.459c-0.678,0.82-1.13,2.139-1.376,3.553h-1.129v-0.004H123.618z
			 M115.791,445.274c0-2.572,1.302-3.967,1.844-4.191c0.153-0.072,0.399-0.139,0.573-0.139c0.871,0,1.375,0.652,1.375,1.996
			c0.034,2.262-1.149,4.314-1.879,4.559c-0.139,0.047-0.365,0.121-0.537,0.121C116.19,447.624,115.791,446.583,115.791,445.274
			 M118.764,440.3c-0.452,0-1.166,0.207-1.878,0.625c-1.202,0.715-2.507,2.332-2.507,4.768c0,1.221,0.573,2.576,2.192,2.576
			c0.767,0,1.861-0.508,2.593-1.168c1.149-1.043,1.824-2.836,1.824-4.387C120.991,441.272,120.225,440.3,118.764,440.3
			 M98.604,436.755l3.121,5.631v4.756l-0.982,0.98h3.328l-0.982-0.98v-4.756l3.179-5.611l1.027-1.004h-3.057l0.966,0.963
			l-2.598,4.625l-2.473-4.625l0.964-0.963h-3.496L98.604,436.755z M92.094,447.142v-10.453h2.345l1.319,1.322v-2.24h-8.692v2.236
			l1.341-1.32h2.324v10.453l-0.962,0.98h3.307L92.094,447.142z M80.887,435.771l0.984,0.982v10.387l-0.984,0.98h3.331l-0.983-0.98
			v-10.387l0.983-0.982H80.887L80.887,435.771z M77.308,444.69c0-1.215-0.568-1.971-1.152-2.369l-2.515-1.822
			c-0.9-0.648-1.361-1.484-1.361-2.115c0-1.295,1.111-1.76,1.781-1.76c0.356,0,0.607,0.146,0.796,0.146l1.087,1.176l1.151-1.719
			l-2.448-0.463c-0.168-0.043-0.271-0.063-0.584-0.063c-2.16,0-3.143,1.84-3.143,3.039c0,0.938,0.48,2.008,1.593,2.824l2.533,1.822
			c0.69,0.48,0.879,1.193,0.879,1.803c0,1.047-0.65,2.188-2.052,2.188c-0.335,0-0.627-0.064-0.858-0.178l-1.174-1.379l-1.068,1.926
			l2.367,0.465c0,0,0.397,0.078,0.731,0.078C75.36,448.292,77.308,447.036,77.308,444.69 M61.433,436.69h1.508
			c1.319,0,2.367,1.131,2.367,2.473c0,1.277-1.069,2.283-2.367,2.283h-1.508V436.69z M61.433,447.142v-4.775h1.866l2.993,5.758
			h2.052l-0.964-0.975l-2.763-5.068c1.382-0.42,2.323-1.717,2.323-2.889c0-2.094-1.946-3.412-4-3.412h-3.831l0.963,0.982v10.387
			l-0.963,0.975h3.305L61.433,447.142z M55.884,448.124v-2.26l-1.321,1.336h-3.748v-5.189H53.6l0.985,0.982v-2.893l-0.985,0.984
			h-2.785v-4.4h3.749l1.322,1.326v-2.24h-7.394l0.963,0.98v10.391l-0.963,0.979h7.392V448.124z M39.863,435.771h-3.498l1.006,0.982
			l3.476,11.367h0.627l3.579-11.367l1.005-0.982h-2.975l0.966,0.963l-2.619,8.541l-2.53-8.541L39.863,435.771z M30.273,435.771
			l0.985,0.982v10.387l-0.985,0.98h3.329l-0.983-0.98v-10.387l0.983-0.982H30.273L30.273,435.771z M18.776,447.058V437.8
			l6.628,10.324h0.428v-11.289l1.069-1.064h-3.225l1.068,1.064v7.855l-5.569-8.918H16.62l1.047,1.063v10.223l-1.047,1.07h3.224
			L18.776,447.058z M4.869,444.819c0,2.025,1.719,3.578,3.833,3.578c2.009,0,4-1.484,4-3.578v-7.984l1.048-1.063h-3.226l1.068,1.063
			v7.984c0,1.42-1.128,2.551-2.555,2.551c-1.444,0-2.723-1.109-2.723-2.551v-7.984l1.071-1.063H3.803l1.066,1.063V444.819
			L4.869,444.819z"/>
	</g>
	<line fill="#B7A57A" x1="4.384" y1="431.151" x2="251.492" y2="431.151"/>
	<g>
		<path fill="#B7A57A" d="M10.187,427.62c-0.458,0-0.982-0.045-1.353-0.109l-3.206-0.566l1.549-2.836l1.701,2.139
			c0.349,0.217,0.982,0.326,1.483,0.326c2.05,0,2.661-1.768,2.661-2.727c0-1.113-0.698-1.811-1.396-2.27l-3.162-2.072
			c-1.309-0.85-2.073-2.094-2.073-3.533c0-2.813,2.313-4.145,4.406-4.145c0.698,0,1.331,0.131,1.919,0.24l2.356,0.436l-1.549,2.617
			l-1.396-1.701c-0.305-0.283-0.676-0.457-1.2-0.457c-1.483,0-2.334,1.133-2.334,2.137c0,0.852,0.415,1.637,1.593,2.424l2.726,1.809
			c1.2,0.809,2.269,1.832,2.269,3.49C15.182,425.308,13.677,427.62,10.187,427.62z"/>
		<path fill="#B7A57A" d="M24.646,427.663c-3.992,0-6.565-3.904-6.565-7.939c0-4.102,2.639-7.939,6.565-7.939
			c2.007,0,3.076,0.502,3.905,0.916v3.164l-2.116-2.117c-0.501-0.523-1.047-0.74-1.789-0.74c-2.945,0-3.73,3.707-3.73,6.717
			c0,3.012,0.895,6.721,3.73,6.721c0.742,0,1.287-0.221,1.789-0.742l2.116-2.115v3.184
			C27.787,427.226,26.805,427.663,24.646,427.663z"/>
		<path fill="#B7A57A" d="M39.344,427.444l1.33-1.33v-6.305H34.85v6.305l1.331,1.33h-5.017l1.331-1.33v-12.783l-1.331-1.33h5.017
			l-1.331,1.33v5.215h5.824v-5.215l-1.33-1.33h5.017l-1.331,1.33v12.783l1.331,1.33H39.344z"/>
		<path fill="#B7A57A" d="M53.802,427.772c-4.079,0-6.631-4.016-6.631-8.051s2.552-8.049,6.631-8.049
			c4.079,0,6.631,4.014,6.631,8.049S57.881,427.772,53.802,427.772z M53.802,412.94c-2.944,0-3.795,3.729-3.795,6.781
			c0,3.055,0.851,6.785,3.795,6.785c2.945,0,3.795-3.73,3.795-6.785C57.597,416.669,56.747,412.94,53.802,412.94z"/>
		<path fill="#B7A57A" d="M70.07,427.772c-4.079,0-6.631-4.016-6.631-8.051s2.552-8.049,6.631-8.049
			c4.079,0,6.631,4.014,6.631,8.049S74.149,427.772,70.07,427.772z M70.07,412.94c-2.944,0-3.795,3.729-3.795,6.781
			c0,3.055,0.851,6.785,3.795,6.785c2.945,0,3.795-3.73,3.795-6.785C73.865,416.669,73.015,412.94,70.07,412.94z"/>
		<path fill="#B7A57A" d="M79.511,427.444l1.331-1.33v-12.783l-1.331-1.33h5.017l-1.331,1.33v12.85h3.687l1.766-1.768v3.031H79.511z
			"/>
		<path fill="#B7A57A" d="M104.067,427.772c-4.079,0-6.631-4.016-6.631-8.051s2.552-8.049,6.631-8.049s6.631,4.014,6.631,8.049
			S108.146,427.772,104.067,427.772z M104.067,412.94c-2.945,0-3.795,3.729-3.795,6.781c0,3.055,0.851,6.785,3.795,6.785
			c2.944,0,3.795-3.73,3.795-6.785C107.862,416.669,107.012,412.94,104.067,412.94z"/>
		<path fill="#B7A57A" d="M121.426,413.267h-4.232v5.277h3.032l1.331-1.33v3.926l-1.331-1.33h-3.032v6.305l1.331,1.33h-5.017
			l1.331-1.33v-12.783l-1.331-1.33h9.685v3.033L121.426,413.267z"/>
		<path fill="#B7A57A" d="M137.563,427.444h-5.779l1.33-1.33v-12.783l-1.33-1.33h5.779c4.777,0,7.067,3.775,7.067,7.723
			S142.34,427.444,137.563,427.444z M137.563,413.267h-2.094v12.912h2.094c2.967,0,4.275-2.988,4.275-6.457
			C141.838,416.255,140.529,413.267,137.563,413.267z"/>
		<path fill="#B7A57A" d="M147.439,427.444l1.332-1.33v-12.783l-1.332-1.33h9.686v3.033l-1.768-1.768h-4.23v5.277h3.032l1.331-1.33
			v3.926l-1.331-1.33h-3.032v6.369h4.23l1.768-1.766v3.031H147.439L147.439,427.444z"/>
		<path fill="#B7A57A" d="M171.497,413.331v15.379l-8.942-13.895v11.299l1.329,1.33h-4.146l1.332-1.33v-12.783l-1.332-1.33h3.861
			l6.414,10.057v-8.727l-1.332-1.33h4.146L171.497,413.331z"/>
		<path fill="#B7A57A" d="M184.318,413.267h-2.596v12.848l1.332,1.33h-5.018l1.33-1.33v-12.848h-2.596l-1.767,1.768v-3.033h11.081
			v3.033L184.318,413.267z"/>
		<path fill="#B7A57A" d="M188.59,427.444l1.331-1.33v-12.783l-1.331-1.33h5.018l-1.332,1.33v12.783l1.332,1.33H188.59z"/>
		<path fill="#B7A57A" d="M200.542,427.62c-0.458,0-0.981-0.045-1.353-0.109l-3.207-0.566l1.549-2.836l1.701,2.139
			c0.349,0.217,0.981,0.326,1.482,0.326c2.051,0,2.661-1.768,2.661-2.727c0-1.113-0.698-1.811-1.396-2.27l-3.164-2.072
			c-1.309-0.85-2.071-2.094-2.071-3.533c0-2.813,2.312-4.145,4.405-4.145c0.699,0,1.332,0.131,1.92,0.24l2.355,0.436l-1.549,2.617
			l-1.396-1.701c-0.306-0.283-0.676-0.457-1.199-0.457c-1.483,0-2.333,1.133-2.333,2.137c0,0.852,0.415,1.637,1.592,2.424
			l2.728,1.809c1.199,0.809,2.269,1.832,2.269,3.49C205.537,425.308,204.032,427.62,200.542,427.62z"/>
		<path fill="#B7A57A" d="M217.227,413.267h-2.596v12.848l1.331,1.33h-5.019l1.33-1.33v-12.848h-2.594l-1.768,1.768v-3.033h11.081
			v3.033L217.227,413.267z"/>
		<path fill="#B7A57A" d="M230.703,427.444l-3.688-7.088h-2.05v5.758l1.331,1.33h-5.018l1.33-1.33v-12.783l-1.33-1.33h5.562
			c2.618,0,5.323,1.354,5.323,4.232c0,1.613-1.178,3.117-2.878,3.664l3.423,6.217l1.331,1.33H230.703z M226.841,413.267h-1.875
			v5.822h1.875c1.483,0,2.64-1.133,2.64-2.855C229.48,414.466,228.369,413.267,226.841,413.267z"/>
		<path fill="#B7A57A" d="M245.945,413.331l-3.817,6.98v5.803l1.331,1.33h-5.018l1.332-1.33v-5.848l-3.904-6.914l-1.354-1.352h5.346
			l-1.31,1.309l2.987,5.432l2.857-5.432l-1.309-1.309h4.188L245.945,413.331z"/>
	</g>
</g>
</svg>
